<svg width="24" height="24" viewBox="0 0 24 24" fill="none" xmlns="http://www.w3.org/2000/svg">
<mask id="mask0_1728_1547" style="mask-type:luminance" maskUnits="userSpaceOnUse" x="-1" y="0" width="25" height="24">
<path d="M-0.0439453 7.24792e-05H23.956V24H-0.0439453V7.24792e-05Z" fill="white"/>
</mask>
<g mask="url(#mask0_1728_1547)">
<path d="M7.61182 11.6259L7.59499 11.8476C7.56316 12.2666 7.15006 12.6382 6.73006 12.6257L6.50787 12.6191C5.90562 12.601 5.37584 12.3693 5.012 11.9648L3.30411 10.0663C2.96136 9.68521 2.78601 9.17319 2.80569 8.61093L2.81647 8.30352C2.83185 7.86534 3.27238 7.46906 3.70977 7.49999L4.01656 7.5217C4.57775 7.5614 5.06844 7.78978 5.41119 8.17082L7.11902 10.0694C7.48291 10.4739 7.65743 11.0252 7.61182 11.6259Z" stroke="#107BC0" stroke-miterlimit="10" stroke-linecap="round" stroke-linejoin="round"/>
<path d="M2.80417 12.626H0.424805V6.09115C0.424805 5.66858 0.767366 5.32606 1.1899 5.32606H2.03908C2.46161 5.32606 2.80417 5.66858 2.80417 6.09115V12.626Z" stroke="#107BC0" stroke-miterlimit="10" stroke-linecap="round" stroke-linejoin="round"/>
<path d="M9.03047 17.6904H23.4872V14.3164C23.4872 14.7814 23.1104 15.1582 22.6454 15.1582H8.46103C7.99603 15.1582 7.61916 14.7814 7.61916 14.3164V12.6261H0.424805V17.6904H4.9059" stroke="#107BC0" stroke-miterlimit="10" stroke-linecap="round" stroke-linejoin="round"/>
<path d="M23.4875 13.3187C23.4875 12.7097 23.1514 12.1466 22.6091 11.8694C22.0905 11.6042 21.29 11.3712 20.0782 11.3712H7.61914V14.3162C7.61914 14.7812 7.99611 15.1582 8.46111 15.1582H22.6455C23.1105 15.1582 23.4875 14.7812 23.4875 14.3162V13.3187Z" stroke="#107BC0" stroke-miterlimit="10" stroke-linecap="round" stroke-linejoin="round"/>
<path d="M2.80417 4.13649C2.80417 4.79353 2.27153 5.32617 1.61449 5.32617C0.957491 5.32617 0.424805 4.79353 0.424805 4.13649C0.424805 3.47944 0.957491 2.9468 1.61449 2.9468C2.27153 2.9468 2.80417 3.47944 2.80417 4.13649Z" stroke="#107BC0" stroke-miterlimit="10" stroke-linecap="round" stroke-linejoin="round"/>
<path d="M0.425293 17.6902V21.0532H2.04318C2.04318 21.0532 2.27258 18.6278 3.47727 17.6902H0.425293Z" stroke="#107BC0" stroke-miterlimit="10" stroke-linecap="round" stroke-linejoin="round"/>
<path d="M23.4875 17.6902V21.0532H21.8696C21.8696 21.0532 21.6402 18.6278 20.4355 17.6902H23.4875Z" stroke="#107BC0" stroke-miterlimit="10" stroke-linecap="round" stroke-linejoin="round"/>
</g>
</svg>
