<svg width="51" height="51" viewBox="0 0 51 51" fill="none" xmlns="http://www.w3.org/2000/svg">
<g clip-path="url(#clip0_1819_7928)">
<mask id="mask0_1819_7928" style="mask-type:luminance" maskUnits="userSpaceOnUse" x="0" y="0" width="51" height="51">
<path d="M50.2499 50.25V0.750149H0.75V50.25H50.2499Z" fill="white" stroke="white" stroke-width="1.5"/>
</mask>
<g mask="url(#mask0_1819_7928)">
<path d="M37.3757 29.7631C36.5531 32.0546 35.0861 34.0389 33.1934 35.4976" stroke="black" stroke-width="2" stroke-miterlimit="10" stroke-linecap="round" stroke-linejoin="round"/>
<path d="M17.8075 35.4976C14.8151 33.1913 12.8867 29.5713 12.8867 25.5008C12.8867 18.5343 18.5339 12.8861 25.5002 12.8861C30.7919 12.8861 35.3225 16.1452 37.1949 20.7655" stroke="black" stroke-width="2" stroke-miterlimit="10" stroke-linecap="round" stroke-linejoin="round"/>
<path d="M30.8231 25.2769C30.8231 28.2166 28.44 30.5996 25.5003 30.5996C22.5608 30.5996 20.1777 28.2166 20.1777 25.2769C20.1777 22.3372 22.5608 19.9542 25.5003 19.9542C28.44 19.9542 30.8231 22.3372 30.8231 25.2769Z" stroke="black" stroke-width="2" stroke-miterlimit="10" stroke-linecap="round" stroke-linejoin="round"/>
<path d="M33.1922 35.3813V35.4975C31.0629 37.1381 28.3952 38.1143 25.4994 38.1143C22.6036 38.1143 19.9359 37.1381 17.8066 35.4975V35.3813C17.8066 32.7406 19.9477 30.5996 22.5884 30.5996H28.4103C31.051 30.5996 33.1922 32.7406 33.1922 35.3813Z" stroke="black" stroke-width="2" stroke-miterlimit="10" stroke-linecap="round" stroke-linejoin="round"/>
<path d="M28.9178 4.4151C28.9178 6.30329 27.3872 7.83398 25.499 7.83398C23.6108 7.83398 22.0801 6.30329 22.0801 4.4151C22.0801 2.52691 23.6108 0.996219 25.499 0.996219C27.3872 0.996219 28.9178 2.52691 28.9178 4.4151Z" stroke="black" stroke-width="2" stroke-miterlimit="10" stroke-linecap="round" stroke-linejoin="round"/>
<path d="M42.8266 13.0084C41.4915 14.3436 39.3268 14.3436 37.9916 13.0084C36.6564 11.6732 36.6564 9.50853 37.9916 8.17337C39.3268 6.83821 41.4915 6.83821 42.8266 8.17337C44.1618 9.50853 44.1618 11.6732 42.8266 13.0084Z" stroke="black" stroke-width="2" stroke-miterlimit="10" stroke-linecap="round" stroke-linejoin="round"/>
<path d="M13.0083 42.8268C11.6731 44.1619 9.50841 44.1619 8.17325 42.8268C6.83808 41.4916 6.83808 39.3269 8.17325 37.9917C9.50841 36.6566 11.6731 36.6566 13.0083 37.9917C14.3434 39.3269 14.3434 41.4916 13.0083 42.8268Z" stroke="black" stroke-width="2" stroke-miterlimit="10" stroke-linecap="round" stroke-linejoin="round"/>
<path d="M46.5849 28.9189C44.6967 28.9189 43.166 27.3883 43.166 25.5001C43.166 23.6119 44.6967 22.0812 46.5849 22.0812C48.4731 22.0812 50.0038 23.6119 50.0038 25.5001C50.0038 27.3883 48.4731 28.9189 46.5849 28.9189Z" stroke="black" stroke-width="2" stroke-miterlimit="10" stroke-linecap="round" stroke-linejoin="round"/>
<path d="M4.41498 28.9189C2.52679 28.9189 0.996094 27.3883 0.996094 25.5001C0.996094 23.6119 2.52679 22.0812 4.41498 22.0812C6.30317 22.0812 7.83386 23.6119 7.83386 25.5001C7.83386 27.3883 6.30317 28.9189 4.41498 28.9189Z" stroke="black" stroke-width="2" stroke-miterlimit="10" stroke-linecap="round" stroke-linejoin="round"/>
<path d="M37.9916 42.8268C36.6564 41.4916 36.6564 39.3269 37.9916 37.9917C39.3268 36.6566 41.4915 36.6566 42.8266 37.9917C44.1618 39.3269 44.1618 41.4916 42.8266 42.8268C41.4915 44.1619 39.3268 44.1619 37.9916 42.8268Z" stroke="black" stroke-width="2" stroke-miterlimit="10" stroke-linecap="round" stroke-linejoin="round"/>
<path d="M8.17325 13.0084C6.83808 11.6732 6.83808 9.50853 8.17325 8.17337C9.50841 6.83821 11.6731 6.83821 13.0083 8.17337C14.3434 9.50853 14.3434 11.6732 13.0083 13.0084C11.6731 14.3436 9.50841 14.3436 8.17325 13.0084Z" stroke="black" stroke-width="2" stroke-miterlimit="10" stroke-linecap="round" stroke-linejoin="round"/>
<path d="M25.5 8.03347V12.5874" stroke="black" stroke-width="2" stroke-miterlimit="10" stroke-linecap="round" stroke-linejoin="round"/>
<path d="M25.5 38.3874V42.9414" stroke="black" stroke-width="2" stroke-miterlimit="10" stroke-linecap="round" stroke-linejoin="round"/>
<path d="M12.6008 25.4873H8.04688" stroke="black" stroke-width="2" stroke-miterlimit="10" stroke-linecap="round" stroke-linejoin="round"/>
<path d="M37.8412 13.1451L34.6211 16.3652" stroke="black" stroke-width="2" stroke-miterlimit="10" stroke-linecap="round" stroke-linejoin="round"/>
<path d="M16.3783 34.6089L13.1582 37.8291" stroke="black" stroke-width="2" stroke-miterlimit="10" stroke-linecap="round" stroke-linejoin="round"/>
<path d="M13.1582 13.1456L16.3783 16.3657" stroke="black" stroke-width="2" stroke-miterlimit="10" stroke-linecap="round" stroke-linejoin="round"/>
<path d="M34.6211 34.6089L37.8412 37.8291" stroke="black" stroke-width="2" stroke-miterlimit="10" stroke-linecap="round" stroke-linejoin="round"/>
</g>
</g>
<defs>
<clipPath id="clip0_1819_7928">
<rect width="51" height="51" fill="white"/>
</clipPath>
</defs>
</svg>
