<svg width="12" height="20" viewBox="0 0 12 20" fill="none" xmlns="http://www.w3.org/2000/svg">
<path d="M10.7375 10.8625L2.61247 18.9875C2.38351 19.2164 2.07298 19.345 1.74918 19.345C1.42539 19.345 1.11486 19.2164 0.885903 18.9875C0.656946 18.7585 0.52832 18.448 0.52832 18.1242C0.52832 17.8004 0.656946 17.4899 0.885903 17.2609L8.14864 10.0002L0.887935 2.73747C0.774567 2.6241 0.684638 2.48951 0.623284 2.34139C0.56193 2.19327 0.530351 2.03451 0.530351 1.87418C0.530351 1.71386 0.56193 1.5551 0.623284 1.40698C0.684638 1.25886 0.774567 1.12427 0.887935 1.0109C1.0013 0.897536 1.13589 0.807607 1.28401 0.746253C1.43213 0.684899 1.59089 0.65332 1.75122 0.65332C1.91154 0.65332 2.0703 0.684899 2.21842 0.746253C2.36654 0.807607 2.50113 0.897536 2.6145 1.0109L10.7395 9.1359C10.853 9.24926 10.943 9.38391 11.0043 9.53212C11.0657 9.68034 11.0971 9.8392 11.0969 9.99961C11.0968 10.16 11.0649 10.3188 11.0032 10.4669C10.9415 10.6149 10.8512 10.7494 10.7375 10.8625Z" fill="#0070DE"/>
</svg>
