<svg width="26" height="26" viewBox="0 0 26 26" fill="none" xmlns="http://www.w3.org/2000/svg">
<path d="M23.6225 11.1022H22.7498V11.0573H12.9998V15.3906H19.1223C18.2291 17.9132 15.829 19.724 12.9998 19.724C9.41021 19.724 6.49984 16.8136 6.49984 13.224C6.49984 9.63433 9.41021 6.72396 12.9998 6.72396C14.6568 6.72396 16.1643 7.34904 17.312 8.37008L20.3763 5.30587C18.4414 3.50267 15.8533 2.39062 12.9998 2.39062C7.01713 2.39062 2.1665 7.24125 2.1665 13.224C2.1665 19.2067 7.01713 24.0573 12.9998 24.0573C18.9825 24.0573 23.8332 19.2067 23.8332 13.224C23.8332 12.4976 23.7584 11.7885 23.6225 11.1022Z" fill="#FFC107"/>
<path d="M3.41553 8.18158L6.97482 10.7919C7.9379 8.40746 10.2703 6.72396 12.9998 6.72396C14.6567 6.72396 16.1642 7.34904 17.312 8.37008L20.3762 5.30587C18.4414 3.50267 15.8533 2.39062 12.9998 2.39062C8.83869 2.39062 5.23011 4.73983 3.41553 8.18158Z" fill="#FF3D00"/>
<path d="M12.9998 24.0573C15.7981 24.0573 18.3407 22.9865 20.2631 21.245L16.9101 18.4078C15.7859 19.2627 14.4122 19.7251 12.9998 19.724C10.1821 19.724 7.78955 17.9273 6.88822 15.4199L3.35547 18.1418C5.14839 21.6502 8.78947 24.0573 12.9998 24.0573Z" fill="#4CAF50"/>
<path d="M23.6226 11.1016H22.75V11.0566H13V15.39H19.1225C18.6952 16.5905 17.9256 17.6396 16.9087 18.4076L16.9103 18.4065L20.2632 21.2438C20.026 21.4593 23.8333 18.64 23.8333 13.2233C23.8333 12.4969 23.7586 11.7879 23.6226 11.1016Z" fill="#1976D2"/>
</svg>
