<svg width="21" height="21" viewBox="0 0 21 21" fill="none" xmlns="http://www.w3.org/2000/svg">
<path d="M19.2476 14.7747V17.5269C19.2487 17.7823 19.1963 18.0351 19.0941 18.2691C18.9918 18.5031 18.8417 18.7132 18.6536 18.8859C18.4655 19.0586 18.2433 19.1901 18.0014 19.2721C17.7595 19.354 17.5032 19.3845 17.2488 19.3617C14.4261 19.055 11.7146 18.0904 9.3324 16.5455C7.11609 15.1372 5.23702 13.2582 3.8286 11.0421C2.2777 8.64885 1.31251 5.92394 1.01124 3.08815C0.988495 2.83454 1.01879 2.57897 1.10019 2.3377C1.1816 2.09644 1.31233 1.87475 1.48408 1.68676C1.65582 1.49876 1.86482 1.34856 2.09777 1.24573C2.33073 1.14289 2.58253 1.08967 2.83718 1.08943H5.58958C6.03466 1.0853 6.46608 1.24308 6.80347 1.53338C7.14086 1.82368 7.36122 2.22672 7.42351 2.66742C7.53951 3.54798 7.75476 4.41259 8.06514 5.24477C8.18859 5.57313 8.21533 5.92999 8.14217 6.27307C8.06902 6.61616 7.89904 6.93108 7.65238 7.18053L6.48905 8.34478C7.79487 10.6412 9.69634 12.5425 11.9929 13.8483L13.1572 12.682C13.4066 12.4354 13.7216 12.2654 14.0647 12.1922C14.4078 12.1191 14.7647 12.1458 15.093 12.2693C15.9253 12.5796 16.7899 12.7949 17.6705 12.9109C18.1161 12.9737 18.5231 13.1981 18.814 13.5414C19.105 13.8846 19.2597 14.3228 19.2486 14.7727L19.2476 14.7747Z" stroke="#107BC0" stroke-width="1.99884" stroke-linecap="round" stroke-linejoin="round"/>
</svg>
