<svg width="24" height="24" viewBox="0 0 24 24" fill="none" xmlns="http://www.w3.org/2000/svg">
<g clip-path="url(#clip0_1728_1570)">
<path d="M19.4082 7.01566L15.446 6.43989L13.6739 2.84946C12.9895 1.46257 11.0104 1.46299 10.3262 2.84941L8.5542 6.43985L4.59191 7.01566C3.0613 7.23803 2.45033 9.1203 3.55742 10.1995L6.42458 12.9943L5.74775 16.9405C5.48633 18.4649 7.08753 19.6276 8.45614 18.9083L12.0001 17.045L15.5442 18.9083C16.9108 19.6268 18.5139 18.4647 18.2525 16.9405L17.5757 12.9943L20.4429 10.1995C21.5502 9.11988 20.9382 7.23799 19.4082 7.01566ZM19.3259 9.05383L16.1576 12.1421C16.0647 12.2327 15.9953 12.3444 15.9552 12.4678C15.9151 12.5912 15.9056 12.7224 15.9275 12.8502L16.6755 17.2111C16.713 17.4301 16.4852 17.5954 16.2886 17.4922L12.3723 15.4333C12.2575 15.3729 12.1298 15.3414 12.0001 15.3414C11.8704 15.3414 11.7426 15.3729 11.6278 15.4333L7.71153 17.4922C7.51484 17.5955 7.28708 17.43 7.32463 17.2111L8.07256 12.8502C8.09448 12.7224 8.08499 12.5912 8.04491 12.4678C8.00483 12.3444 7.93537 12.2327 7.8425 12.1421L4.67417 9.05383C4.51503 8.89872 4.60208 8.63097 4.82197 8.59896L9.20047 7.96272C9.32882 7.94407 9.45071 7.8945 9.55564 7.81827C9.66058 7.74204 9.7454 7.64144 9.80281 7.52514L11.761 3.5575C11.8593 3.35838 12.1408 3.35824 12.2392 3.55755L14.1973 7.52514C14.2547 7.64145 14.3396 7.74205 14.4445 7.81828C14.5494 7.89451 14.6713 7.94408 14.7997 7.96272L19.1782 8.59896C19.398 8.63097 19.485 8.89877 19.3259 9.05383ZM6.31555 2.21013L5.35878 0.893268C5.099 0.535893 4.59875 0.456581 4.24137 0.716362C3.88395 0.97605 3.80469 1.47635 4.06442 1.83377L5.02119 3.15058C5.28106 3.50814 5.78131 3.58713 6.13859 3.32749C6.49602 3.06785 6.57528 2.56755 6.31555 2.21013ZM3.14052 14.0111C3.00406 13.591 2.55275 13.3608 2.13247 13.4975L0.552969 14.0108C0.132781 14.1473 -0.0971407 14.5986 0.0393593 15.0188C0.176094 15.4397 0.628156 15.6688 1.04741 15.5324L2.62691 15.0192C3.04714 14.8826 3.27706 14.4313 3.14052 14.0111ZM19.7587 0.716409C19.4014 0.456722 18.9011 0.535893 18.6413 0.893315L17.6846 2.21013C17.4248 2.56755 17.5041 3.06789 17.8615 3.32753C18.2191 3.58732 18.7193 3.50791 18.9789 3.15063L19.9357 1.83382C20.1954 1.47639 20.1162 0.97605 19.7587 0.716409ZM23.447 14.0108L21.8675 13.4975C21.4474 13.3608 20.996 13.591 20.8595 14.0111C20.723 14.4313 20.9529 14.8827 21.3731 15.0192L22.9526 15.5324C23.3719 15.6688 23.8239 15.4397 23.9607 15.0188C24.0972 14.5986 23.8672 14.1473 23.447 14.0108ZM12 20.2126C11.5582 20.2126 11.2001 20.5708 11.2001 21.0126V22.6362C11.2001 23.078 11.5582 23.4362 12 23.4362C12.4418 23.4362 12.8 23.078 12.8 22.6362V21.0126C12.8 20.5707 12.4419 20.2126 12 20.2126Z" fill="#107BC0"/>
</g>
<defs>
<clipPath id="clip0_1728_1570">
<rect width="24" height="24" fill="white"/>
</clipPath>
</defs>
</svg>
