<svg width="28" height="28" viewBox="0 0 28 28" fill="none" xmlns="http://www.w3.org/2000/svg">
<g clip-path="url(#clip0_4244_11707)">
<path d="M16.5652 14.0234L27.468 3.12039C28.1775 2.41119 28.1775 1.26447 27.468 0.555343C26.7588 -0.153864 25.6121 -0.153864 24.903 0.555343L13.9999 11.4583L3.09721 0.555343C2.38766 -0.153864 1.24137 -0.153864 0.532161 0.555343C-0.177387 1.26455 -0.177387 2.41119 0.532161 3.12039L11.4347 14.0234L0.532246 24.9263C-0.177302 25.6355 -0.177302 26.7822 0.532246 27.4914C0.700473 27.6601 0.900378 27.7939 1.12048 27.8851C1.34057 27.9763 1.57652 28.0231 1.81477 28.0228C2.27907 28.0228 2.74354 27.8451 3.0973 27.4914L13.9999 16.5884L24.903 27.4914C25.0712 27.66 25.2711 27.7938 25.4912 27.885C25.7113 27.9762 25.9472 28.0231 26.1855 28.0228C26.6498 28.0228 27.1143 27.8451 27.468 27.4914C28.1775 26.7822 28.1775 25.6355 27.468 24.9263L16.5652 14.0234Z" fill="white"/>
</g>
<defs>
<clipPath id="clip0_4244_11707">
<rect width="28" height="28" fill="white"/>
</clipPath>
</defs>
</svg>
