<svg width="35" height="35" viewBox="0 0 35 35" fill="none" xmlns="http://www.w3.org/2000/svg">
<rect x="0.5" y="0.5" width="34" height="34" rx="17" stroke="white"/>
<path d="M17.7682 11.8063C16.7896 11.8063 15.9236 12.023 15.1702 12.4563C14.512 12.8377 13.9924 13.3533 13.6114 14.0033C13.265 14.61 13.0918 15.2383 13.0918 15.8883C13.0918 16.4777 13.2 16.989 13.4165 17.4223C13.6504 17.8903 13.9881 18.211 14.4298 18.3843C14.5077 18.419 14.577 18.4233 14.6376 18.3973C14.6982 18.3713 14.7372 18.315 14.7545 18.2283L14.8974 17.7083C14.9147 17.6217 14.9169 17.5567 14.9039 17.5133C14.8909 17.47 14.8541 17.4137 14.7935 17.3443C14.5077 16.9977 14.3648 16.5687 14.3648 16.0573C14.3648 15.5027 14.4969 14.9848 14.761 14.5038C15.0251 14.0228 15.3954 13.6437 15.8717 13.3663C16.3739 13.0717 16.9455 12.9243 17.5863 12.9243C18.1579 12.9243 18.6515 13.037 19.0672 13.2623C19.4656 13.4703 19.7708 13.7628 19.983 14.1398C20.1952 14.5168 20.3013 14.948 20.3013 15.4333C20.3013 16.066 20.2147 16.6467 20.0415 17.1753C19.8683 17.704 19.6258 18.12 19.314 18.4233C18.9936 18.744 18.6299 18.9043 18.2229 18.9043C17.9977 18.9043 17.7985 18.848 17.6253 18.7353C17.4521 18.6227 17.3244 18.4688 17.2421 18.2738C17.1598 18.0788 17.1447 17.8687 17.1966 17.6433C17.2486 17.4353 17.3395 17.1233 17.4694 16.7073C17.5734 16.3693 17.647 16.1223 17.6903 15.9663C17.7509 15.7063 17.7812 15.494 17.7812 15.3293C17.7812 15.0433 17.7076 14.8137 17.5604 14.6403C17.4045 14.441 17.1837 14.3413 16.8979 14.3413C16.6641 14.3413 16.4519 14.415 16.2614 14.5623C16.0708 14.7097 15.9193 14.9133 15.8067 15.1733C15.6941 15.4333 15.6378 15.7237 15.6378 16.0443C15.6378 16.2263 15.6552 16.404 15.6898 16.5773C15.7158 16.7073 15.7504 16.8287 15.7937 16.9413L15.8457 17.0713L15.0013 20.6333C14.8541 21.266 14.8454 22.0677 14.9753 23.0383L14.9883 23.1163C14.997 23.151 15.0186 23.1727 15.0533 23.1813C15.0879 23.19 15.1182 23.1813 15.1442 23.1553L15.1832 23.1163C15.7721 22.3363 16.1531 21.6343 16.3263 21.0103L16.781 19.2163C16.8935 19.4417 17.1014 19.6345 17.4045 19.7948C17.7076 19.9552 18.0323 20.0353 18.3787 20.0353C19.0629 20.0353 19.6777 19.836 20.2233 19.4373C20.7429 19.056 21.1521 18.5252 21.4509 17.8448C21.7496 17.1645 21.899 16.3997 21.899 15.5503C21.899 14.9003 21.7258 14.2872 21.3794 13.7108C21.033 13.1345 20.5567 12.6817 19.9505 12.3523C19.301 11.9883 18.5736 11.8063 17.7682 11.8063Z" fill="white"/>
</svg>
