<svg width="25" height="24" viewBox="0 0 25 24" fill="none" xmlns="http://www.w3.org/2000/svg">
<path d="M19.9231 4H6.07692C5.26087 4 4.47824 4.32565 3.90121 4.90531C3.32417 5.48496 3 6.27115 3 7.09091V14.8182C3 15.6379 3.32417 16.4241 3.90121 17.0038C4.47824 17.5834 5.26087 17.9091 6.07692 17.9091H14.5385L19.1538 21V17.9091H19.9231C20.7391 17.9091 21.5218 17.5834 22.0988 17.0038C22.6758 16.4241 23 15.6379 23 14.8182V7.09091C23 6.27115 22.6758 5.48496 22.0988 4.90531C21.5218 4.32565 20.7391 4 19.9231 4Z" stroke="black" stroke-width="2" stroke-linecap="round" stroke-linejoin="round"/>
<path d="M9.5 11.25C9.5 11.4489 9.42098 11.6397 9.28033 11.7803C9.13968 11.921 8.94891 12 8.75 12C8.55109 12 8.36032 11.921 8.21967 11.7803C8.07902 11.6397 8 11.4489 8 11.25C8 11.0511 8.07902 10.8603 8.21967 10.7197C8.36032 10.579 8.55109 10.5 8.75 10.5C8.94891 10.5 9.13968 10.579 9.28033 10.7197C9.42098 10.8603 9.5 11.0511 9.5 11.25ZM14 11.25C14 11.4489 13.921 11.6397 13.7803 11.7803C13.6397 11.921 13.4489 12 13.25 12C13.0511 12 12.8603 11.921 12.7197 11.7803C12.579 11.6397 12.5 11.4489 12.5 11.25C12.5 11.0511 12.579 10.8603 12.7197 10.7197C12.8603 10.579 13.0511 10.5 13.25 10.5C13.4489 10.5 13.6397 10.579 13.7803 10.7197C13.921 10.8603 14 11.0511 14 11.25ZM18.5 11.25C18.5 11.4489 18.421 11.6397 18.2803 11.7803C18.1397 11.921 17.9489 12 17.75 12C17.5511 12 17.3603 11.921 17.2197 11.7803C17.079 11.6397 17 11.4489 17 11.25C17 11.0511 17.079 10.8603 17.2197 10.7197C17.3603 10.579 17.5511 10.5 17.75 10.5C17.9489 10.5 18.1397 10.579 18.2803 10.7197C18.421 10.8603 18.5 11.0511 18.5 11.25Z" stroke="black" stroke-width="2" stroke-linecap="round" stroke-linejoin="round"/>
</svg>
