<svg width="24" height="24" viewBox="0 0 24 24" fill="none" xmlns="http://www.w3.org/2000/svg">
<g clip-path="url(#clip0_2723_3532)">
<path d="M13.3332 0.315188C13.1119 0.112415 12.8226 -4.34221e-05 12.5224 5.01697e-07H11.4776C11.1775 -0.000274143 10.8883 0.112222 10.6672 0.315188L0.259594 9.84999C0.177873 9.92503 0.112608 10.0162 0.0679255 10.1178C0.0232428 10.2193 0.0001137 10.329 0 10.44L0 23.2C0 23.6418 0.358172 24 0.800016 24H23.2C23.6419 24 24 23.6418 24 23.2V10.44C24 10.329 23.9769 10.2192 23.9322 10.1176C23.8875 10.0159 23.8222 9.92469 23.7405 9.84961L13.3332 0.315188ZM12.7924 0.905204L21.6 8.97441V10.2884L12.4 1.82442V0.800016H12.5224C12.6224 0.799813 12.7189 0.837379 12.7924 0.905204ZM8.00002 21.6V17.6H16V21.6H8.00002ZM2.4 21.6V17.6H5.60002V21.6H2.4ZM2.4 16H5.60002V16.8H2.4V16ZM5.60002 15.2H2.4V11.3756L5.60002 8.43164V15.2ZM6.39998 17.2V7.69561L7.2 6.95963V21.6H6.39998V17.2ZM11.2 8.00002H16V8.80003H8.00002V8.00002H11.2ZM8.00002 9.6H16V15.2H8.00002V9.6ZM8.00002 16H16V16.8H8.00002V16ZM16 7.2H13.2V3.64758L16 6.22359V7.2ZM12 2.5432L12.4 2.91122V7.2H11.6V2.91122L12 2.5432ZM10.8 7.2H8.00002V6.22359L10.8 3.64758V7.2ZM16.8 17.2V6.96L17.6 7.69598V21.6H16.8V17.2ZM18.4 16H21.6V16.8H18.4V16ZM21.6 15.2H18.4V8.43159L21.6 11.3756V15.2ZM18.4 17.6H21.6V21.6H18.4V17.6ZM11.2076 0.905204C11.2811 0.837386 11.3775 0.79982 11.4776 0.800016H11.6V1.82442L2.4 10.2884V8.97399L11.2076 0.905204ZM0.800016 10.44L1.60003 9.70678V23.2H0.800016V10.44ZM2.4 22.4H21.6V23.2H2.4V22.4ZM23.2 23.2H22.4V9.7072L23.2 10.44V23.2Z" fill="#E91919"/>
</g>
<defs>
<clipPath id="clip0_2723_3532">
<rect width="24" height="24" fill="white"/>
</clipPath>
</defs>
</svg>
