<svg width="49" height="49" viewBox="0 0 49 49" fill="none" xmlns="http://www.w3.org/2000/svg">
<path d="M45.5592 21.3632C45.3847 16.0372 43.1841 10.9785 39.4066 7.21982C35.4231 3.23551 30.1288 1.04199 24.4999 1.04199C13.1311 1.04199 3.8418 10.0909 3.44138 21.3632C2.56476 21.7515 1.81958 22.3857 1.29613 23.189C0.772673 23.9922 0.493413 24.9301 0.492188 25.8888V31.4488C0.493606 32.7617 1.0158 34.0205 1.94418 34.9489C2.87256 35.8772 4.13132 36.3994 5.44425 36.4009C6.29373 36.3998 7.10813 36.0619 7.7088 35.4613C8.30947 34.8606 8.64738 34.0462 8.64839 33.1967V24.1401C8.64839 22.481 7.37592 21.1282 5.75816 20.9674C6.35534 11.1467 14.5307 3.33887 24.4999 3.33887C29.5163 3.33887 34.2333 5.29427 37.7835 8.84448C41.0435 12.1045 42.9515 16.3537 43.2386 20.9681C41.6223 21.1305 40.3522 22.4826 40.3522 24.1401V33.1959C40.3522 34.8688 41.6445 36.2301 43.2814 36.3718V38.6602C43.28 39.8994 42.7871 41.0873 41.9108 41.9635C41.0345 42.8396 39.8465 43.3324 38.6073 43.3336H35.1459C34.9126 42.6532 34.472 42.063 33.8861 41.6459C33.3001 41.2287 32.5983 41.0055 31.879 41.0076H28.3112C27.799 41.0076 27.3074 41.1163 26.8573 41.3261C26.2544 41.6046 25.7439 42.0497 25.3857 42.6089C25.0276 43.1681 24.8368 43.818 24.836 44.482C24.836 45.4115 25.1981 46.2843 25.8543 46.9374C26.1759 47.2616 26.5587 47.5187 26.9804 47.6937C27.4022 47.8688 27.8545 47.9584 28.3112 47.9572H31.879C33.3582 47.9572 34.662 47.0009 35.1482 45.6305H38.6073C42.4515 45.6305 45.5783 42.5037 45.5783 38.6602V35.9629C46.4497 35.5724 47.1898 34.9385 47.7094 34.1374C48.2291 33.3363 48.5063 32.4022 48.5076 31.4473V25.8873C48.5076 23.8706 47.2933 22.1342 45.5592 21.3632ZM6.35075 24.1401V33.1959C6.35075 33.6959 5.9442 34.1032 5.44348 34.1032C4.73953 34.1024 4.06465 33.8224 3.56688 33.3246C3.06911 32.8269 2.78911 32.152 2.7883 31.448V25.8881C2.78911 25.1841 3.06911 24.5092 3.56688 24.0115C4.06465 23.5137 4.73953 23.2337 5.44348 23.2329C5.9442 23.2329 6.35075 23.6402 6.35075 24.1401ZM33.0313 44.7286C32.9742 44.9922 32.8288 45.2285 32.6191 45.3982C32.4094 45.568 32.148 45.661 31.8782 45.6619H28.3104C27.9965 45.6619 27.7017 45.5394 27.4766 45.3143C27.3671 45.2055 27.2802 45.0761 27.2211 44.9335C27.1619 44.7909 27.1317 44.6379 27.1321 44.4836C27.1329 44.1714 27.2573 43.8722 27.4782 43.6515C27.699 43.4309 27.9982 43.3066 28.3104 43.306H31.8782C32.1921 43.306 32.4869 43.4278 32.7112 43.6529C32.9333 43.8741 33.0558 44.1697 33.0558 44.4836C33.0565 44.5678 33.0473 44.652 33.0313 44.7286ZM46.2107 31.448C46.2099 32.152 45.9299 32.8269 45.4321 33.3246C44.9344 33.8224 44.2595 34.1024 43.5555 34.1032C43.315 34.103 43.0843 34.0074 42.9142 33.8373C42.7441 33.6672 42.6485 33.4365 42.6483 33.1959V24.1401C42.6483 23.6402 43.0548 23.2329 43.5555 23.2329C44.2595 23.2337 44.9344 23.5137 45.4321 24.0115C45.9299 24.5092 46.2099 25.1841 46.2107 25.8881V31.448Z" fill="black"/>
<path d="M31.9366 31.844C33.2268 31.8426 34.4637 31.3295 35.376 30.4172C36.2883 29.5049 36.8015 28.2679 36.8029 26.9777V17.0621C36.8029 15.7651 36.2961 14.5432 35.3758 13.6229C34.4555 12.7026 33.2343 12.1958 31.9366 12.1958H17.0636C15.7734 12.1972 14.5364 12.7104 13.6241 13.6227C12.7118 14.535 12.1987 15.7719 12.1973 17.0621V26.9777C12.1987 28.2679 12.7118 29.5049 13.6241 30.4172C14.5364 31.3295 15.7734 31.8426 17.0636 31.844H17.1547V34.4135C17.1532 34.7272 17.2137 35.0382 17.3328 35.3284C17.4519 35.6187 17.6272 35.8826 17.8486 36.1049C18.07 36.3271 18.3332 36.5035 18.623 36.6237C18.9128 36.7439 19.2236 36.8056 19.5373 36.8053C19.8509 36.8059 20.1613 36.7434 20.4502 36.6215C20.739 36.4995 21.0004 36.3207 21.2186 36.0956L25.4931 31.844H31.9366ZM24.2107 29.881L19.5848 34.4816C19.5641 34.5031 19.5488 34.5191 19.5052 34.5C19.4523 34.4786 19.4523 34.4441 19.4523 34.4135V30.6956C19.4523 30.391 19.3313 30.0989 19.116 29.8835C18.9006 29.6682 18.6085 29.5472 18.3039 29.5472H17.0643C16.3831 29.5464 15.7301 29.2754 15.2484 28.7937C14.7667 28.312 14.4957 27.6589 14.4949 26.9777V17.0621C14.4957 16.3809 14.7667 15.7278 15.2484 15.2461C15.7301 14.7645 16.3831 14.4935 17.0643 14.4927H31.9374C32.6218 14.4927 33.2657 14.7606 33.7527 15.2468C34.2396 15.7338 34.5068 16.3784 34.5068 17.0621V26.9777C34.506 27.6589 34.235 28.312 33.7533 28.7937C33.2717 29.2754 32.6186 29.5464 31.9374 29.5472H25.0207C24.7168 29.5472 24.4258 29.6674 24.2107 29.881Z" fill="black"/>
<path d="M18.9209 20.5088C17.9868 20.5088 17.2266 21.2698 17.2266 22.2031C17.2266 23.1364 17.9876 23.8974 18.9209 23.8974C19.8557 23.8974 20.6167 23.1364 20.6167 22.2031C20.6167 21.2698 19.8565 20.5088 18.9209 20.5088ZM24.4992 20.5088C23.5652 20.5088 22.8049 21.2698 22.8049 22.2031C22.8049 23.1364 23.5659 23.8974 24.4992 23.8974C25.4348 23.8974 26.1951 23.1364 26.1951 22.2031C26.1951 21.2698 25.4348 20.5088 24.4992 20.5088ZM30.0776 20.5088C29.1435 20.5088 28.3832 21.2698 28.3832 22.2031C28.3832 23.1364 29.1443 23.8974 30.0776 23.8974C31.0124 23.8974 31.7734 23.1364 31.7734 22.2031C31.7734 21.2698 31.0124 20.5088 30.0776 20.5088Z" fill="black"/>
</svg>
