<svg width="24" height="24" viewBox="0 0 24 24" fill="none" xmlns="http://www.w3.org/2000/svg">
<path d="M1.44009 13.44H22.56C22.7491 13.44 22.9364 13.4028 23.1112 13.3304C23.2859 13.258 23.4447 13.1519 23.5784 13.0182C23.7121 12.8844 23.8182 12.7256 23.8906 12.5509C23.9629 12.3761 24.0002 12.1888 24.0001 11.9997C24.0002 11.8106 23.9629 11.6233 23.8906 11.4486C23.8182 11.2738 23.7121 11.1151 23.5784 10.9813C23.4447 10.8476 23.2859 10.7415 23.1112 10.6691C22.9364 10.5968 22.7491 10.5595 22.56 10.5596H1.44009C1.06103 10.564 0.699007 10.7177 0.432527 10.9873C0.166048 11.2569 0.0166016 11.6207 0.0166016 11.9998C0.0166016 12.3789 0.166048 12.7427 0.432527 13.0123C0.699007 13.2819 1.06103 13.4356 1.44009 13.44Z" fill="black"/>
</svg>
