<svg width="18" height="23" viewBox="0 0 18 23" fill="none" xmlns="http://www.w3.org/2000/svg">
<path d="M16.7502 4.9735L12.5471 0.99716C12.1001 0.574209 11.5149 0.341309 10.8995 0.341309H2.89744C1.57549 0.341309 0.5 1.4168 0.5 2.73874V20.2618C0.5 21.5838 1.57549 22.6593 2.89744 22.6593H15.1026C16.4245 22.6593 17.5 21.5838 17.5 20.2618V6.71509C17.5 6.05911 17.2267 5.42431 16.7502 4.9735ZM15.4801 5.57208H12.2256C12.1055 5.57208 12.0077 5.47431 12.0077 5.35413V2.28698L15.4801 5.57208ZM15.1026 21.3516H2.89744C2.29655 21.3516 1.80769 20.8627 1.80769 20.2618V2.73874C1.80769 2.13786 2.29655 1.649 2.89744 1.649H10.7V5.35413C10.7 6.19537 11.3844 6.87977 12.2256 6.87977H16.1923V20.2618C16.1923 20.8627 15.7034 21.3516 15.1026 21.3516Z" fill="#107BC0"/>
<path d="M13.6645 9.05908H4.07474C3.71365 9.05908 3.4209 9.35183 3.4209 9.71293C3.4209 10.074 3.71365 10.3668 4.07474 10.3668H13.6645C14.0256 10.3668 14.3183 10.074 14.3183 9.71293C14.3183 9.35183 14.0256 9.05908 13.6645 9.05908ZM13.6645 12.5463H4.07474C3.71365 12.5463 3.4209 12.839 3.4209 13.2001C3.4209 13.5612 3.71365 13.854 4.07474 13.854H13.6645C14.0256 13.854 14.3183 13.5612 14.3183 13.2001C14.3183 12.839 14.0256 12.5463 13.6645 12.5463ZM7.24459 16.0334H4.07474C3.71365 16.0334 3.4209 16.3262 3.4209 16.6873C3.4209 17.0484 3.71365 17.3411 4.07474 17.3411H7.24459C7.60569 17.3411 7.89844 17.0484 7.89844 16.6873C7.89844 16.3262 7.60569 16.0334 7.24459 16.0334Z" fill="#107BC0"/>
</svg>
