<svg width="25" height="25" viewBox="0 0 25 25" fill="none" xmlns="http://www.w3.org/2000/svg">
<path fill-rule="evenodd" clip-rule="evenodd" d="M21.9123 6.23682V22.6488C21.9123 22.7524 21.9535 22.8518 22.0267 22.925C22.1 22.9983 22.1994 23.0394 22.303 23.0394C22.4066 23.0394 22.5059 22.9983 22.5792 22.925C22.6524 22.8518 22.6936 22.7524 22.6936 22.6488V6.23682C22.6899 6.13568 22.6471 6.03993 22.5743 5.96969C22.5014 5.89945 22.4042 5.8602 22.303 5.8602C22.2018 5.8602 22.1045 5.89945 22.0317 5.96969C21.9588 6.03993 21.916 6.13568 21.9123 6.23682ZM3.08838 22.6488V12.2912C3.08838 12.1876 3.04722 12.0883 2.97397 12.015C2.90071 11.9418 2.80135 11.9006 2.69775 11.9006C2.59415 11.9006 2.4948 11.9418 2.42154 12.015C2.34828 12.0883 2.30713 12.1876 2.30713 12.2912V22.6488C2.31082 22.7499 2.35359 22.8457 2.42645 22.9159C2.4993 22.9862 2.59655 23.0254 2.69775 23.0254C2.79895 23.0254 2.89621 22.9862 2.96906 22.9159C3.04191 22.8457 3.08469 22.7499 3.08838 22.6488ZM3.08838 8.76624V6.23682C3.08838 6.13322 3.04722 6.03386 2.97397 5.9606C2.90071 5.88735 2.80135 5.84619 2.69775 5.84619C2.59415 5.84619 2.4948 5.88735 2.42154 5.9606C2.34828 6.03386 2.30713 6.13322 2.30713 6.23682V8.76624C2.31082 8.86738 2.35359 8.96313 2.42645 9.03337C2.4993 9.10361 2.59655 9.14286 2.69775 9.14286C2.79895 9.14286 2.89621 9.10361 2.96906 9.03337C3.04191 8.96313 3.08469 8.86738 3.08838 8.76624ZM20.9001 22.6488V14.1678C20.9002 14.0133 20.8699 13.8604 20.8109 13.7177C20.7518 13.5749 20.6652 13.4452 20.556 13.336C20.4468 13.2268 20.3172 13.1402 20.1744 13.0811C20.0317 13.022 19.8788 12.9917 19.7243 12.9918H16.1873C15.8755 12.9919 15.5765 13.1159 15.356 13.3364C15.1355 13.5569 15.0116 13.856 15.0116 14.1678V22.6488C15.0116 22.7524 15.0527 22.8518 15.126 22.925C15.1992 22.9983 15.2986 23.0394 15.4022 23.0394C15.5058 23.0394 15.6051 22.9983 15.6784 22.925C15.7516 22.8518 15.7928 22.7524 15.7928 22.6488V14.1678C15.7927 14.116 15.8028 14.0646 15.8226 14.0167C15.8424 13.9687 15.8715 13.9252 15.9081 13.8885C15.9448 13.8518 15.9883 13.8228 16.0362 13.8029C16.0841 13.7831 16.1355 13.7729 16.1873 13.773H19.7243C19.829 13.773 19.9293 13.8146 20.0033 13.8886C20.0773 13.9626 20.1188 14.0629 20.1188 14.1675V22.6488C20.1188 22.7524 20.16 22.8518 20.2333 22.925C20.3065 22.9983 20.4059 23.0394 20.5095 23.0394C20.6131 23.0394 20.7124 22.9983 20.7857 22.925C20.8589 22.8518 20.9001 22.7524 20.9001 22.6488ZM20.9001 9.98135V9.55166C20.9001 9.39723 20.8697 9.24431 20.8107 9.10163C20.7516 8.95895 20.665 8.8293 20.5558 8.72009C20.4466 8.61088 20.317 8.52425 20.1743 8.46514C20.0317 8.40604 19.8787 8.37562 19.7243 8.37562H16.1873C16.0329 8.37562 15.88 8.40604 15.7373 8.46514C15.5947 8.52425 15.465 8.61088 15.3558 8.72009C15.2467 8.8293 15.1601 8.95895 15.101 9.10163C15.0419 9.24431 15.0115 9.39723 15.0116 9.55166V9.98135C15.0115 10.1358 15.0419 10.2887 15.101 10.4313C15.1601 10.574 15.2467 10.7036 15.3559 10.8128C15.465 10.922 15.5947 11.0086 15.7373 11.0677C15.88 11.1268 16.0329 11.1572 16.1873 11.1571H19.7243C19.8787 11.1572 20.0316 11.1268 20.1743 11.0677C20.317 11.0086 20.4466 10.922 20.5558 10.8128C20.665 10.7036 20.7516 10.574 20.8107 10.4313C20.8697 10.2887 20.9001 10.1358 20.9001 9.98135ZM20.1188 9.55166V9.98135C20.1188 10.1993 19.9423 10.3759 19.7243 10.3759H16.1873C16.0827 10.3759 15.9824 10.3343 15.9084 10.2603C15.8344 10.1863 15.7928 10.086 15.7928 9.98135V9.55166C15.7928 9.33369 15.9694 9.15687 16.1873 9.15687H19.7243C19.9423 9.15687 20.1188 9.33369 20.1188 9.55166ZM10.005 14.2574C10.0051 14.1029 9.9748 13.9499 9.91573 13.8072C9.85667 13.6645 9.77005 13.5348 9.66082 13.4256C9.55159 13.3163 9.42191 13.2297 9.27918 13.1707C9.13645 13.1116 8.98347 13.0812 8.829 13.0813H5.29228C5.13784 13.0813 4.98489 13.1117 4.84219 13.1708C4.69949 13.2299 4.56983 13.3165 4.46062 13.4257C4.35141 13.5349 4.26478 13.6646 4.20569 13.8073C4.14661 13.95 4.11621 14.1029 4.11624 14.2574V18.336C4.11638 18.6479 4.24034 18.9469 4.46087 19.1674C4.68139 19.3879 4.98045 19.5118 5.29228 19.5118H8.829C9.14086 19.5118 9.43996 19.3879 9.6605 19.1675C9.88104 18.947 10.005 18.6479 10.005 18.336V14.2574ZM9.22379 14.2574V18.336C9.2238 18.3879 9.21358 18.4392 9.19374 18.4871C9.1739 18.535 9.14481 18.5785 9.10815 18.6151C9.07149 18.6517 9.02796 18.6808 8.98006 18.7006C8.93217 18.7204 8.88084 18.7306 8.829 18.7306H5.29228C5.18765 18.7305 5.08731 18.6889 5.01329 18.615C4.93928 18.541 4.89763 18.4407 4.89749 18.336V14.2574C4.89756 14.1527 4.93918 14.0523 5.0132 13.9783C5.08722 13.9043 5.1876 13.8627 5.29228 13.8626H8.829C8.93369 13.8627 9.03406 13.9043 9.10809 13.9783C9.18211 14.0523 9.22373 14.1527 9.22379 14.2574Z" fill="#107BC0"/>
<path fill-rule="evenodd" clip-rule="evenodd" d="M6.66995 13.4718V19.121C6.66995 19.2246 6.71111 19.324 6.78437 19.3972C6.85762 19.4705 6.95698 19.5116 7.06058 19.5116C7.16418 19.5116 7.26354 19.4705 7.33679 19.3972C7.41005 19.324 7.4512 19.2246 7.4512 19.121V13.4718C7.4512 13.3682 7.41005 13.2688 7.33679 13.1956C7.26354 13.1223 7.16418 13.0812 7.06058 13.0812C6.95698 13.0812 6.85762 13.1223 6.78437 13.1956C6.71111 13.2688 6.66995 13.3682 6.66995 13.4718ZM5.76188 6.62725H23.6939C23.8484 6.62735 24.0014 6.597 24.1441 6.53794C24.2868 6.47887 24.4165 6.39225 24.5257 6.28303C24.635 6.1738 24.7216 6.04411 24.7806 5.90138C24.8397 5.75865 24.8701 5.60568 24.87 5.45121V4.87647C24.87 4.6277 24.7911 4.38534 24.6447 4.18423C24.4983 3.98311 24.2919 3.8336 24.0551 3.7572L12.8614 0.14522C12.6265 0.0694319 12.3738 0.0694319 12.139 0.14522L0.945215 3.7572C0.708472 3.8336 0.502055 3.98311 0.35564 4.18423C0.209226 4.38534 0.130356 4.6277 0.130371 4.87647V5.45121C0.130337 5.60566 0.160733 5.7586 0.219822 5.9013C0.278912 6.044 0.365537 6.17366 0.474749 6.28287C0.583962 6.39209 0.713621 6.47871 0.856321 6.5378C0.99902 6.59689 1.15196 6.62729 1.30641 6.62725H4.41709C4.51822 6.62356 4.61398 6.58079 4.68422 6.50793C4.75446 6.43508 4.79371 6.33783 4.79371 6.23663C4.79371 6.13543 4.75446 6.03817 4.68422 5.96532C4.61398 5.89247 4.51822 5.84969 4.41709 5.846H1.30641C1.20173 5.84593 1.10135 5.80432 1.02733 5.73029C0.953306 5.65627 0.91169 5.55589 0.911621 5.45121V4.87647C0.911621 4.70512 1.02204 4.55329 1.18506 4.50069L12.3791 0.888709C12.4577 0.863189 12.5426 0.863189 12.6213 0.888709L23.8153 4.50069C23.9783 4.55329 24.0887 4.70512 24.0887 4.87647V5.45121C24.0886 5.55589 24.047 5.65627 23.973 5.73029C23.899 5.80432 23.7986 5.84593 23.6939 5.846H5.76188C5.65828 5.846 5.55893 5.88716 5.48567 5.96041C5.41241 6.03367 5.37126 6.13303 5.37126 6.23663C5.37126 6.34023 5.41241 6.43958 5.48567 6.51284C5.55893 6.5861 5.65828 6.62725 5.76188 6.62725Z" fill="#107BC0"/>
<path fill-rule="evenodd" clip-rule="evenodd" d="M13.9992 22.6487V9.55153C13.999 9.23971 13.8751 8.9407 13.6546 8.72019C13.4342 8.49967 13.1352 8.3757 12.8234 8.37549H2.23926C1.92742 8.37563 1.62839 8.49958 1.40792 8.72011C1.18744 8.94064 1.06355 9.23969 1.06348 9.55153V10.2036C1.06344 10.358 1.09383 10.511 1.1529 10.6536C1.21198 10.7963 1.29858 10.926 1.40776 11.0352C1.51695 11.1444 1.64658 11.231 1.78925 11.2901C1.93191 11.3492 2.08483 11.3797 2.23926 11.3797H10.6005C10.8184 11.3797 10.9952 11.5562 10.9952 11.7742V22.6487C10.9952 22.7523 11.0364 22.8516 11.1097 22.9249C11.1829 22.9981 11.2823 23.0393 11.3859 23.0393C11.4895 23.0393 11.5888 22.9981 11.6621 22.9249C11.7353 22.8516 11.7765 22.7523 11.7765 22.6487V11.7742C11.7764 11.4623 11.6525 11.1633 11.432 10.9428C11.2114 10.7223 10.9123 10.5984 10.6005 10.5984H2.23926C2.18743 10.5984 2.1361 10.5882 2.08822 10.5683C2.04033 10.5485 1.99683 10.5194 1.96019 10.4828C1.92355 10.4461 1.8945 10.4026 1.87468 10.3547C1.85487 10.3068 1.84469 10.2554 1.84473 10.2036V9.55153C1.84462 9.49968 1.85476 9.44832 1.87454 9.40039C1.89433 9.35246 1.92338 9.30891 1.96004 9.27223C1.99669 9.23556 2.04022 9.20647 2.08814 9.18666C2.13605 9.16684 2.18741 9.15667 2.23926 9.15674H12.8234C12.8752 9.15674 12.9265 9.16695 12.9744 9.18679C13.0223 9.20664 13.0658 9.23572 13.1024 9.27239C13.1391 9.30905 13.1681 9.35257 13.1879 9.40047C13.2078 9.44837 13.2179 9.4997 13.2179 9.55153V22.6487C13.2179 22.7523 13.2591 22.8516 13.3323 22.9249C13.4056 22.9981 13.5049 23.0393 13.6085 23.0393C13.7121 23.0393 13.8115 22.9981 13.8847 22.9249C13.958 22.8516 13.9992 22.7523 13.9992 22.6487Z" fill="#107BC0"/>
<path fill-rule="evenodd" clip-rule="evenodd" d="M23.9369 23.4336C23.937 23.2792 23.9066 23.1263 23.8475 22.9836C23.7884 22.8409 23.7018 22.7113 23.5926 22.6021C23.4834 22.4929 23.3538 22.4063 23.2111 22.3472C23.0685 22.2882 22.9156 22.2578 22.7611 22.2578H2.23926C2.08484 22.2578 1.93193 22.2882 1.78927 22.3472C1.6466 22.4063 1.51697 22.4929 1.40778 22.6021C1.29859 22.7113 1.21198 22.8409 1.15291 22.9836C1.09383 23.1263 1.06344 23.2792 1.06348 23.4336V24.5211C1.06348 24.6247 1.10463 24.7241 1.17789 24.7973C1.25114 24.8706 1.3505 24.9117 1.4541 24.9117H23.5463C23.6499 24.9117 23.7492 24.8706 23.8225 24.7973C23.8958 24.7241 23.9369 24.6247 23.9369 24.5211V23.4336ZM23.1557 23.4336V24.1305H1.84473V23.4336C1.84473 23.2156 2.02129 23.0391 2.23926 23.0391H22.7611C22.9791 23.0391 23.1557 23.2156 23.1557 23.4336Z" fill="#107BC0"/>
</svg>
