<svg width="35" height="35" viewBox="0 0 35 35" fill="none" xmlns="http://www.w3.org/2000/svg">
<rect x="0.5" y="0.5" width="34" height="34" rx="17" stroke="white"/>
<path d="M23.1849 13.9642C22.7775 14.1462 22.3269 14.2719 21.8329 14.3412C22.0755 14.2026 22.2857 14.0206 22.4634 13.7952C22.641 13.5699 22.7732 13.3186 22.8599 13.0412C22.4179 13.3186 21.9239 13.5092 21.3779 13.6132C21.1699 13.3792 20.9164 13.1972 20.6174 13.0672C20.3184 12.9372 20.0042 12.8722 19.6749 12.8722C19.2502 12.8722 18.8602 12.9784 18.5049 13.1907C18.1495 13.4031 17.8679 13.6869 17.6599 14.0422C17.4519 14.3976 17.3479 14.7876 17.3479 15.2122C17.3479 15.4202 17.3652 15.5979 17.3999 15.7452C16.4465 15.6932 15.5495 15.4506 14.7089 15.0172C13.8855 14.5926 13.1792 14.0206 12.5899 13.3012C12.3819 13.6739 12.2779 14.0617 12.2779 14.4647C12.2779 14.8677 12.371 15.2404 12.5574 15.5827C12.7437 15.9251 12.9972 16.2046 13.3179 16.4212C12.9365 16.4126 12.5855 16.3129 12.2649 16.1222V16.1612C12.2649 16.7246 12.4404 17.2186 12.7914 17.6432C13.1424 18.0679 13.5909 18.3366 14.1369 18.4492C13.9462 18.5012 13.7382 18.5272 13.5129 18.5272C13.3569 18.5272 13.2139 18.5142 13.0839 18.4882C13.2312 18.9562 13.5042 19.3397 13.9029 19.6387C14.3015 19.9377 14.7522 20.0916 15.2549 20.1002C14.8562 20.4209 14.4077 20.6679 13.9094 20.8412C13.411 21.0146 12.8932 21.1012 12.3559 21.1012C12.2432 21.1012 12.0699 21.0926 11.8359 21.0752H11.7969C12.8802 21.7686 14.0762 22.1152 15.3849 22.1152C16.4162 22.1152 17.3652 21.9159 18.2319 21.5172C19.0292 21.1446 19.7225 20.6246 20.3119 19.9572C20.8579 19.3332 21.2825 18.6226 21.5859 17.8252C21.8719 17.0539 22.0149 16.2739 22.0149 15.4852V15.1732C22.4742 14.8439 22.8642 14.4409 23.1849 13.9642Z" fill="white"/>
</svg>
