<svg width="48" height="48" viewBox="0 0 48 48" fill="none" xmlns="http://www.w3.org/2000/svg">
<path d="M21.6928 11.2286C22.0615 11.5873 22.5418 11.7662 23.0223 11.7661C23.5136 11.7661 24.0049 11.579 24.3763 11.2055L28.2412 7.30444C28.4184 7.12725 28.5587 6.91667 28.6539 6.68489C28.7492 6.45311 28.7976 6.20474 28.7962 5.95416C28.7962 5.70359 28.7464 5.45551 28.6499 5.22428C28.5534 4.99305 28.4119 4.78327 28.2338 4.60706C28.0572 4.43049 27.8475 4.29054 27.6167 4.19528C27.3859 4.10002 27.1385 4.05132 26.8888 4.05197H26.8834C26.6328 4.052 26.3847 4.10173 26.1535 4.19828C25.9222 4.29484 25.7124 4.43629 25.5362 4.61447L25.5352 4.6155L22.9994 7.17506L22.4402 6.62991C22.075 6.27459 21.5975 6.08231 21.0837 6.08991C20.8332 6.09268 20.5856 6.14514 20.3555 6.24424C20.1253 6.34333 19.9171 6.4871 19.7428 6.66722C19.3876 7.03247 19.1958 7.51416 19.2028 8.02369C19.2099 8.53322 19.415 9.00947 19.7796 9.36403L21.6928 11.2286ZM20.8182 7.71291C20.8555 7.67444 20.8999 7.64373 20.9491 7.62257C20.9983 7.60141 21.0511 7.59021 21.1047 7.58963H21.1105C21.2163 7.5893 21.3181 7.63054 21.3939 7.70447L22.4853 8.76844C22.627 8.90649 22.8176 8.98297 23.0154 8.98123C23.2133 8.97949 23.4024 8.89968 23.5417 8.75916L26.6006 5.6715C26.6382 5.63365 26.6829 5.6036 26.7322 5.58309C26.7814 5.56257 26.8343 5.552 26.8876 5.55197H26.8888C26.9972 5.55197 27.0991 5.59406 27.1761 5.67066C27.2142 5.70828 27.2444 5.75309 27.265 5.80248C27.2856 5.85187 27.2962 5.90486 27.2962 5.95837C27.2964 6.01213 27.286 6.0654 27.2655 6.11508C27.245 6.16477 27.2148 6.20987 27.1767 6.24778L23.3117 10.1488C23.1553 10.3064 22.8981 10.3085 22.7395 10.1542L20.8262 8.28919C20.7877 8.25198 20.757 8.2075 20.7359 8.15834C20.7147 8.10917 20.7035 8.0563 20.7029 8.00278C20.702 7.94924 20.7117 7.89604 20.7315 7.84628C20.7513 7.79652 20.7808 7.75119 20.8182 7.71291ZM43.2802 27.1256H36.3203C36.1214 27.1256 35.9306 27.2046 35.79 27.3453C35.6493 27.4859 35.5703 27.6767 35.5703 27.8756C35.5703 34.2558 30.3796 39.4464 23.9995 39.4464C17.6193 39.4464 12.4287 34.2558 12.4287 27.8756C12.4287 27.6767 12.3496 27.4859 12.209 27.3453C12.0683 27.2046 11.8776 27.1256 11.6787 27.1256H4.71875C4.51984 27.1256 4.32907 27.2046 4.18842 27.3453C4.04777 27.4859 3.96875 27.6767 3.96875 27.8756V30.4627C3.96875 31.2238 4.58797 31.8431 5.34931 31.8431H7.34347C7.76164 33.6116 8.46192 35.3012 9.41741 36.8469L8.00628 38.258C7.46806 38.7963 7.46806 39.672 8.00628 40.2103L11.6648 43.8689C11.9252 44.1292 12.2719 44.2727 12.641 44.2727C13.0101 44.2727 13.3567 44.1293 13.6171 43.8689L15.0282 42.4577C16.5819 43.4164 18.2602 44.112 20.032 44.5317V46.5259C20.032 47.287 20.6512 47.9062 21.4124 47.9062H26.5864C27.3477 47.9062 27.967 47.2871 27.967 46.5259V44.5316C29.7353 44.1134 31.4248 43.4132 32.9705 42.4577L34.3817 43.8689C34.9201 44.407 35.7959 44.4067 36.3338 43.8688L39.9926 40.2103C40.5308 39.672 40.5308 38.7963 39.9925 38.258L38.5813 36.8468C39.5399 35.2932 40.2356 33.6149 40.6553 31.8431H42.6496C43.4108 31.8431 44.0301 31.2239 44.0301 30.4627V27.8756C44.0301 27.7771 44.0107 27.6796 43.973 27.5886C43.9354 27.4976 43.8801 27.4149 43.8105 27.3453C43.7408 27.2757 43.6582 27.2204 43.5672 27.1827C43.4762 27.145 43.3787 27.1256 43.2802 27.1256ZM42.5302 30.343H40.0514C39.878 30.343 39.7098 30.4032 39.5757 30.5132C39.4416 30.6232 39.3498 30.7764 39.3159 30.9465C38.9166 32.9493 38.1375 34.8292 37.0002 36.5338C36.9039 36.6781 36.8606 36.8513 36.8776 37.0239C36.8947 37.1965 36.9711 37.3579 37.0937 37.4805L38.8474 39.2341L35.3577 42.7237L33.6042 40.97C33.4815 40.8474 33.3201 40.771 33.1475 40.754C32.9749 40.737 32.8017 40.7803 32.6574 40.8765C30.9538 42.0136 29.0741 42.7927 27.0702 43.1923C26.9001 43.2262 26.747 43.3181 26.637 43.4522C26.527 43.5863 26.4669 43.7544 26.4669 43.9279V46.4062H21.5319V43.9277C21.5319 43.7542 21.4717 43.5861 21.3617 43.452C21.2517 43.3178 21.0985 43.226 20.9284 43.1921C18.9256 42.7928 17.0457 42.0138 15.3411 40.8764C15.1968 40.7801 15.0236 40.7368 14.851 40.7538C14.6784 40.7709 14.5171 40.8472 14.3944 40.9699L12.6407 42.7236L9.15125 39.234L10.9048 37.4804C11.0275 37.3577 11.1038 37.1964 11.1209 37.0237C11.138 36.8511 11.0947 36.6779 10.9984 36.5336C9.86131 34.8302 9.08225 32.9503 8.68269 30.9462C8.64877 30.7761 8.55694 30.623 8.42282 30.513C8.2887 30.403 8.12059 30.3428 7.94712 30.3428H5.46875V28.6256H10.9499C11.3398 35.4854 17.0439 40.9464 23.9995 40.9464C30.9551 40.9464 36.6592 35.4854 37.049 28.6256H42.5302V30.343ZM9.03969 25.6115L11.8503 26.1714C11.9363 26.1886 12.0221 26.1968 12.1066 26.1968C12.593 26.1968 13.0385 25.9233 13.2632 25.4985L19.6389 31.874C20.0982 32.3332 20.7014 32.5628 21.3048 32.5628C21.9081 32.5628 22.5113 32.3333 22.9706 31.874C23.178 31.6672 23.3448 31.4234 23.4623 31.1552L24.0961 31.789C25.015 32.7077 26.5096 32.7074 27.4279 31.7887C27.6451 31.572 27.8176 31.3147 27.9357 31.0315C28.3249 31.3001 28.7869 31.4447 29.2719 31.4447C29.9024 31.4447 30.494 31.2003 30.9378 30.7566C31.3621 30.3322 31.6042 29.7726 31.6244 29.1728C32.2003 29.1532 32.7703 28.9239 33.2088 28.4854C33.7924 27.9019 34.0161 27.0476 33.8293 26.2632L34.6901 25.4025C34.8953 25.8817 35.3703 26.1968 35.8923 26.1968C35.9768 26.1968 36.0626 26.1886 36.1486 26.1714L38.9593 25.6115C39.128 25.5782 39.2884 25.5118 39.4313 25.4161C39.5742 25.3205 39.6967 25.1974 39.7917 25.0541C39.8877 24.9114 39.9544 24.7511 39.988 24.5824C40.0216 24.4138 40.0214 24.2401 39.9875 24.0715L37.8034 13.1078C37.6622 12.4 36.9718 11.9389 36.2634 12.0797L33.4528 12.6397C32.7751 12.7747 32.3251 13.4133 32.4111 14.0887C31.376 14.4021 30.2009 14.5327 28.8525 14.039C29.7772 13.3075 30.5242 12.3761 31.0374 11.3147C31.5507 10.2534 31.817 9.08952 31.8162 7.91053C31.8162 3.60028 28.3096 0.09375 23.9995 0.09375C19.6893 0.09375 16.1828 3.60028 16.1828 7.91044C16.1828 10.0622 17.0441 12.0544 18.525 13.4984H15.5271C15.4906 13.392 15.4407 13.2907 15.3786 13.1969C15.2836 13.0536 15.161 12.9306 15.0181 12.8349C14.8752 12.7392 14.7148 12.6728 14.5461 12.6396L11.7353 12.0796C11.027 11.9385 10.3366 12.3998 10.1954 13.1078L8.01144 24.0715C7.94319 24.4139 8.01275 24.7629 8.20719 25.0541C8.40163 25.3453 8.69722 25.5432 9.03969 25.6115ZM36.3696 13.5879L38.4792 24.1777L36.0424 24.6631L33.9328 14.0734L36.3696 13.5879ZM32.701 15.5677L34.3128 23.6584L32.9664 25.0047L26.5451 18.4898C26.5357 18.4802 26.526 18.4709 26.516 18.4618C25.105 17.1763 23.7999 16.6243 22.9347 16.9471C22.4835 17.1154 22.1911 17.4969 22.1323 17.994C22.1316 17.9999 22.1309 18.0058 22.1304 18.0117C22.1171 18.1533 22.1047 18.2943 22.0923 18.4346C21.9249 20.3382 21.7532 21.4697 20.3358 22.0736L19.369 17.6427C19.2973 17.3146 19.5035 17.0611 19.689 16.9062L23.4577 13.7596C24.0833 13.2373 24.9366 13.2697 25.6312 13.8428C28.4505 16.169 30.8346 16.1052 32.701 15.5677ZM17.6828 7.91044C17.6828 4.42744 20.5165 1.59375 23.9995 1.59375C27.4825 1.59375 30.3162 4.42744 30.3162 7.91044C30.3168 8.98016 30.0456 10.0325 29.528 10.9687C29.0103 11.9048 28.2633 12.694 27.3569 13.2623C27.0905 13.0829 26.8331 12.8905 26.5857 12.6858C25.3273 11.6478 23.684 11.6167 22.4964 12.6083L21.4302 13.4984H21.0525C18.9699 12.3999 17.6828 10.2744 17.6828 7.91044ZM15.4113 14.9984H19.6337L18.7277 15.7548C18.0256 16.3409 17.7253 17.1456 17.9034 17.9626L19.0466 23.2013C19.068 23.2991 19.1087 23.3917 19.1665 23.4736C19.2242 23.5554 19.2978 23.6249 19.3828 23.6778C19.4679 23.7308 19.5626 23.7662 19.6616 23.782C19.7605 23.7977 19.8616 23.7935 19.9588 23.7696C23.199 22.9711 23.405 20.6309 23.5866 18.5662C23.5923 18.5015 23.5979 18.4366 23.6038 18.3716C23.8992 18.4347 24.5473 18.7009 25.4912 19.5574L32.3366 26.5025C32.4601 26.8165 32.3888 27.1842 32.1483 27.4246C31.8144 27.7582 31.2715 27.7585 30.9378 27.4247L26.1562 22.6431C26.0155 22.5024 25.8248 22.4234 25.6258 22.4234C25.4269 22.4234 25.2362 22.5024 25.0955 22.6431C24.9548 22.7837 24.8758 22.9745 24.8758 23.1734C24.8758 23.3723 24.9548 23.5631 25.0955 23.7038L29.8771 28.4854C30.0376 28.6458 30.1259 28.8607 30.1259 29.0905C30.1259 29.3204 30.0376 29.5353 29.8771 29.6957C29.7167 29.8562 29.5018 29.9445 29.2719 29.9445C29.0421 29.9445 28.8271 29.8563 28.6668 29.6958L23.6143 24.6431C23.5446 24.5735 23.4619 24.5182 23.3709 24.4805C23.2799 24.4428 23.1824 24.4234 23.0839 24.4234C22.9854 24.4234 22.8879 24.4428 22.7969 24.4805C22.7059 24.5182 22.6232 24.5735 22.5536 24.6431C22.4839 24.7128 22.4287 24.7955 22.391 24.8864C22.3533 24.9774 22.3339 25.075 22.3339 25.1735C22.3339 25.272 22.3533 25.3695 22.391 25.4605C22.4287 25.5515 22.4839 25.6342 22.5536 25.7038L26.3673 29.5177C26.7011 29.8513 26.7011 30.3943 26.3673 30.728C26.0336 31.0616 25.4906 31.0618 25.1569 30.7282L21.0724 26.6435C20.9317 26.5028 20.741 26.4238 20.5421 26.4238C20.3431 26.4238 20.1524 26.5028 20.0117 26.6435C19.8711 26.7841 19.792 26.9749 19.792 27.1738C19.792 27.3727 19.8711 27.5635 20.0117 27.7042L21.9102 29.6027C22.0707 29.7631 22.159 29.978 22.159 30.2078C22.159 30.4376 22.0707 30.6526 21.9102 30.813C21.5765 31.1468 21.0334 31.1468 20.6998 30.813L13.6629 23.7762L15.4113 14.9984ZM11.6293 13.5879L14.0661 14.0734L11.9565 24.6631L9.51978 24.1777L11.6293 13.5879Z" fill="black"/>
</svg>
