<svg width="38" height="38" viewBox="0 0 38 38" fill="none" xmlns="http://www.w3.org/2000/svg">
<g clip-path="url(#clip0_4244_11711)">
<path d="M19 38C18.5079 38 18.036 37.8045 17.688 37.4565C17.34 37.1086 17.1445 36.6366 17.1445 36.1445V1.85547C17.1445 1.36337 17.34 0.891422 17.688 0.543454C18.036 0.195486 18.5079 0 19 0C19.4921 0 19.964 0.195486 20.312 0.543454C20.66 0.891422 20.8555 1.36337 20.8555 1.85547V36.1445C20.8555 36.6366 20.66 37.1086 20.312 37.4565C19.964 37.8045 19.4921 38 19 38Z" fill="#107BC0"/>
<path d="M36.1445 20.8555H1.85547C1.36337 20.8555 0.891422 20.66 0.543454 20.312C0.195486 19.964 0 19.4921 0 19C0 18.5079 0.195486 18.036 0.543454 17.688C0.891422 17.34 1.36337 17.1445 1.85547 17.1445H36.1445C36.6366 17.1445 37.1086 17.34 37.4565 17.688C37.8045 18.036 38 18.5079 38 19C38 19.4921 37.8045 19.964 37.4565 20.312C37.1086 20.66 36.6366 20.8555 36.1445 20.8555Z" fill="#107BC0"/>
</g>
<defs>
<clipPath id="clip0_4244_11711">
<rect width="38" height="38" fill="white"/>
</clipPath>
</defs>
</svg>
