<svg width="24" height="24" viewBox="0 0 24 24" fill="none" xmlns="http://www.w3.org/2000/svg">
<g clip-path="url(#clip0_1728_2819)">
<path d="M19.4082 6.45218L15.446 5.87642L13.6739 2.28598C12.9895 0.899089 11.0104 0.899511 10.3262 2.28593L8.5542 5.87637L4.59191 6.45218C3.0613 6.67456 2.45033 8.55682 3.55742 9.63607L6.42458 12.4309L5.74775 16.377C5.48633 17.9014 7.08753 19.0641 8.45614 18.3448L12.0001 16.4816L15.5442 18.3448C16.9108 19.0633 18.5139 17.9012 18.2525 16.377L17.5757 12.4308L20.4429 9.63603C21.5502 8.5564 20.9382 6.67451 19.4082 6.45218ZM19.3259 8.49035L16.1576 11.5787C16.0647 11.6692 15.9953 11.781 15.9552 11.9043C15.9151 12.0277 15.9056 12.1589 15.9275 12.2868L16.6755 16.6476C16.713 16.8666 16.4852 17.032 16.2886 16.9287L12.3723 14.8698C12.2575 14.8095 12.1298 14.7779 12.0001 14.7779C11.8704 14.7779 11.7426 14.8095 11.6278 14.8698L7.71153 16.9287C7.51484 17.0321 7.28708 16.8665 7.32463 16.6476L8.07256 12.2868C8.09448 12.1589 8.08499 12.0277 8.04491 11.9043C8.00483 11.781 7.93537 11.6692 7.8425 11.5787L4.67417 8.49035C4.51503 8.33525 4.60208 8.0675 4.82197 8.03548L9.20047 7.39924C9.32882 7.3806 9.45071 7.33102 9.55564 7.25479C9.66058 7.17857 9.7454 7.07797 9.80281 6.96167L11.761 2.99403C11.8593 2.7949 12.1408 2.79476 12.2392 2.99407L14.1973 6.96167C14.2547 7.07797 14.3396 7.17857 14.4445 7.2548C14.5494 7.33103 14.6713 7.3806 14.7997 7.39924L19.1782 8.03548C19.398 8.0675 19.485 8.33529 19.3259 8.49035ZM6.31555 1.64665L5.35878 0.329792C5.099 -0.0275831 4.59875 -0.106896 4.24137 0.152886C3.88395 0.412573 3.80469 0.91287 4.06442 1.27029L5.02119 2.5871C5.28106 2.94467 5.78131 3.02365 6.13859 2.76401C6.49602 2.50437 6.57528 2.00407 6.31555 1.64665ZM3.14052 13.4477C3.00406 13.0275 2.55275 12.7974 2.13247 12.9341L0.552969 13.4473C0.132781 13.5838 -0.0971407 14.0351 0.0393593 14.4553C0.176094 14.8762 0.628156 15.1054 1.04741 14.9689L2.62691 14.4557C3.04714 14.3192 3.27706 13.8679 3.14052 13.4477ZM19.7587 0.152933C19.4014 -0.106755 18.9011 -0.0275831 18.6413 0.329839L17.6846 1.64665C17.4248 2.00407 17.5041 2.50442 17.8615 2.76406C18.2191 3.02384 18.7193 2.94443 18.9789 2.58715L19.9357 1.27034C20.1954 0.912917 20.1162 0.412573 19.7587 0.152933ZM23.447 13.4473L21.8675 12.9341C21.4474 12.7973 20.996 13.0275 20.8595 13.4477C20.723 13.8679 20.9529 14.3192 21.3731 14.4557L22.9526 14.9689C23.3719 15.1053 23.8239 14.8762 23.9607 14.4553C24.0972 14.0352 23.8672 13.5838 23.447 13.4473ZM12 19.6491C11.5582 19.6491 11.2001 20.0073 11.2001 20.4491V22.0728C11.2001 22.5146 11.5582 22.8727 12 22.8727C12.4418 22.8727 12.8 22.5146 12.8 22.0728V20.4491C12.8 20.0073 12.4419 19.6491 12 19.6491Z" fill="#1699E0"/>
</g>
<defs>
<clipPath id="clip0_1728_2819">
<rect width="24" height="24" fill="white"/>
</clipPath>
</defs>
</svg>
