<svg width="20" height="24" viewBox="0 0 20 24" fill="none" xmlns="http://www.w3.org/2000/svg">
<path d="M18.1703 10.3218C18.1703 17.0003 9.58465 22.7243 9.58465 22.7243C9.58465 22.7243 0.999023 17.0003 0.999023 10.3218C0.999023 8.04455 1.90358 5.86055 3.5137 4.25027C5.12381 2.64 7.3076 1.73535 9.58465 1.73535C11.8617 1.73535 14.0455 2.64 15.6556 4.25027C17.2657 5.86055 18.1703 8.04455 18.1703 10.3218Z" stroke="#107BC0" stroke-width="1.99895" stroke-linecap="round" stroke-linejoin="round"/>
<path d="M9.4938 12.7298C10.8738 12.7298 11.9925 11.6111 11.9925 10.2311C11.9925 8.85112 10.8738 7.73242 9.4938 7.73242C8.11382 7.73242 6.99512 8.85112 6.99512 10.2311C6.99512 11.6111 8.11382 12.7298 9.4938 12.7298Z" stroke="#107BC0" stroke-width="1.99895" stroke-linecap="round" stroke-linejoin="round"/>
</svg>
