<svg width="21" height="21" viewBox="0 0 21 21" fill="none" xmlns="http://www.w3.org/2000/svg">
<path d="M19.2467 14.7747V17.5269C19.2477 17.7823 19.1954 18.0351 19.0931 18.2691C18.9908 18.5031 18.8408 18.7132 18.6526 18.8859C18.4645 19.0586 18.2423 19.1901 18.0004 19.2721C17.7585 19.354 17.5022 19.3845 17.2478 19.3617C14.4251 19.055 11.7137 18.0904 9.33142 16.5455C7.11512 15.1372 5.23605 13.2582 3.82763 11.0421C2.27673 8.64885 1.31153 5.92394 1.01026 3.08815C0.987519 2.83454 1.01781 2.57897 1.09922 2.3377C1.18062 2.09644 1.31135 1.87475 1.4831 1.68676C1.65485 1.49876 1.86384 1.34856 2.0968 1.24573C2.32975 1.14289 2.58156 1.08967 2.8362 1.08943H5.5886C6.03369 1.0853 6.46511 1.24308 6.8025 1.53338C7.13989 1.82368 7.36025 2.22672 7.42253 2.66742C7.53854 3.54798 7.75378 4.41259 8.06416 5.24477C8.18762 5.57313 8.21435 5.92999 8.14119 6.27307C8.06804 6.61616 7.89806 6.93108 7.6514 7.18053L6.48808 8.34478C7.79389 10.6412 9.69536 12.5425 11.9919 13.8483L13.1562 12.682C13.4057 12.4354 13.7206 12.2654 14.0637 12.1922C14.4068 12.1191 14.7637 12.1458 15.0921 12.2693C15.9243 12.5796 16.789 12.7949 17.6696 12.9109C18.1152 12.9737 18.5221 13.1981 18.8131 13.5414C19.104 13.8846 19.2587 14.3228 19.2477 14.7727L19.2467 14.7747Z" stroke="#107BC0" stroke-width="1.99884" stroke-linecap="round" stroke-linejoin="round"/>
</svg>
