<svg width="46" height="46" viewBox="0 0 46 46" fill="none" xmlns="http://www.w3.org/2000/svg">
<path d="M45.9168 36.073C45.701 35.0341 45.0903 34.1466 44.1972 33.5735C43.304 33.0008 42.2431 32.8158 41.2085 33.0524L36.4138 34.1501V32.1901C37.3754 31.2843 38.3766 30.1016 39.0887 29.0207C40.3374 27.1252 41.2211 25.0437 41.7153 22.8351C42.3027 20.2076 42.3154 17.4259 41.7514 14.7899C41.6475 14.3049 41.1698 13.9953 40.6848 14.0996C40.1995 14.2031 39.8906 14.6807 39.9941 15.1661C40.5044 17.5502 40.4932 20.0665 39.9615 22.4428C39.5151 24.4382 38.7163 26.319 37.588 28.032C37.2535 28.5399 36.8479 29.0726 36.4138 29.5815V19.6228C36.4138 19.1266 36.0115 18.7243 35.5153 18.7243H28.4081V9.13002C28.4081 8.63517 28.0077 8.23338 27.5128 8.23159L19.5073 8.20463H19.5045C19.3868 8.20453 19.2702 8.22762 19.1614 8.27258C19.0525 8.31755 18.9537 8.38352 18.8703 8.46671C18.7866 8.55014 18.7201 8.6493 18.6747 8.75849C18.6294 8.86768 18.6061 8.98475 18.6061 9.10298V14.0939H11.4979C11.002 14.0939 10.5995 14.4961 10.5995 14.9923V23.8893H8.5976V22.669C8.5976 22.1731 8.19546 21.771 7.69916 21.771H6.77763C6.62036 20.9069 6.53034 20.0319 6.50837 19.1539C6.45572 17.024 6.79335 14.94 7.51139 12.9593C7.67973 12.4952 7.86828 12.0388 8.0765 11.5913C8.28602 11.1414 8.09088 10.6069 7.6413 10.3973C7.19136 10.1885 6.65688 10.3829 6.44773 10.8328C6.21708 11.3281 6.00841 11.8332 5.82232 12.3469C5.02775 14.5385 4.65436 16.8439 4.71185 19.1982C4.73383 20.0603 4.81497 20.9199 4.9547 21.771H0.898437C0.40223 21.771 0 22.1732 0 22.6694V38.4616C0 38.9578 0.40223 39.36 0.898437 39.36H7.69916C8.19546 39.36 8.5976 38.9578 8.5976 38.4616V37.6073H11.9773L25.6675 42.9769C26.9458 43.4785 28.2847 43.7307 29.6306 43.7307C30.5279 43.7307 31.4292 43.6184 32.3167 43.3927L43.0471 40.6655C45.084 40.1479 46.3443 38.1306 45.9168 36.073ZM34.6172 20.5212V34.5615L32.2153 35.1113C31.9568 35.1699 31.6959 35.2174 31.4334 35.2535C30.4313 35.3917 29.4132 35.3621 28.4208 35.1661C28.4166 35.165 28.4124 35.1643 28.4082 35.1633V33.8009C29.0932 32.779 29.3203 31.4832 28.9613 30.3005C28.8613 29.9697 28.7191 29.6531 28.5384 29.3585C28.4975 29.292 28.4546 29.2267 28.4099 29.1627C28.4096 29.1617 28.4089 29.161 28.4081 29.16V20.5209H34.6172L34.6172 20.5212ZM20.403 10.0046L26.6116 10.0252V27.733L23.1419 26.2968L20.403 25.163V10.0046ZM12.3964 15.8908H18.605V24.4186L17.4908 23.9574C17.3818 23.9122 17.2651 23.889 17.1471 23.889H12.3964V15.8908ZM6.80072 37.5631H1.79687V23.5675H6.0357C6.0375 23.5675 6.03957 23.5678 6.04163 23.5678C6.04343 23.5678 6.04478 23.5675 6.04657 23.5675H6.80072V37.5631ZM42.6045 38.9241L31.8741 41.6514C30.0218 42.122 28.1025 42.0016 26.3236 41.3042L12.4753 35.8726C12.3707 35.8316 12.2594 35.8107 12.1471 35.8108H8.5976V25.6862H16.9682L22.7813 28.0924L25.9624 29.4091C27.0879 29.8758 27.6266 31.1961 27.1651 32.3202C27.0725 32.5459 26.9577 32.7604 26.8053 32.9516C26.2428 33.6616 25.3166 33.9746 24.4505 33.7641L24.4294 33.7588C24.3773 33.7457 24.3257 33.7307 24.2747 33.7139L18.2295 31.3899C18.1803 31.3709 18.1544 31.3611 18.1544 31.3611C17.6915 31.1828 17.1717 31.4141 16.9935 31.8774C16.8156 32.3403 17.0465 32.8604 17.5097 33.0383C17.5097 33.0383 20.9181 34.3487 23.5173 35.3511C23.5696 35.3714 23.6215 35.3904 23.6738 35.4079L25.6697 36.1754C26.273 36.4074 26.8734 36.6384 27.5013 36.7988C28.5693 37.0716 29.6726 37.1801 30.7733 37.1206C31.394 37.0872 32.0108 37.001 32.6169 36.863L35.716 36.1537C35.7192 36.153 35.7223 36.1516 35.7256 36.1509L41.6096 34.804C42.1693 34.6758 42.7439 34.7758 43.2268 35.0858C43.7104 35.396 44.0406 35.8764 44.1576 36.4387C44.2698 36.9733 44.1708 37.5307 43.8813 37.994C43.5918 38.4573 43.1343 38.7906 42.6045 38.9241ZM11.4891 6.39015C11.7116 6.39045 11.9262 6.30788 12.0911 6.15853C13.6942 4.71052 15.6086 3.55549 17.6283 2.81814C19.8165 2.01943 22.2153 1.67865 24.5656 1.833C26.2424 1.94242 27.8935 2.30203 29.4639 2.8999C29.9271 3.07644 30.4465 2.8442 30.6231 2.38015C30.7999 1.91656 30.5673 1.39753 30.1033 1.22099C28.3657 0.559267 26.5389 0.161197 24.6835 0.0399926C22.0857 -0.130531 19.4329 0.246364 17.0121 1.13043C14.7775 1.94603 12.6595 3.22379 10.8869 4.82489C10.5184 5.15758 10.4896 5.72575 10.8223 6.09393C10.9064 6.18738 11.0093 6.26206 11.1242 6.31309C11.239 6.36413 11.3634 6.39039 11.4891 6.39015Z" fill="black"/>
<path d="M31.8839 12.802C32.0471 12.9442 32.2563 13.0224 32.4728 13.0222C32.6014 13.0223 32.7286 12.9948 32.8457 12.9415C32.9628 12.8882 33.0671 12.8104 33.1515 12.7133L40.5433 4.20445C40.869 3.82998 40.829 3.26252 40.4545 2.93711C40.0796 2.61188 39.5126 2.65141 39.1872 3.02596L31.7951 11.5348C31.4694 11.9093 31.5094 12.4767 31.8839 12.802ZM38.5081 8.96086C37.2643 8.96086 36.2526 9.97268 36.2526 11.2165C36.2526 12.4603 37.2643 13.472 38.5081 13.472C39.7519 13.472 40.7637 12.4599 40.7637 11.2165C40.7637 9.97268 39.7519 8.96086 38.5081 8.96086ZM38.5081 11.6751C38.3865 11.675 38.2699 11.6267 38.1839 11.5407C38.0979 11.4547 38.0496 11.3381 38.0494 11.2165C38.0496 11.0949 38.098 10.9783 38.1839 10.8923C38.2699 10.8063 38.3865 10.7579 38.5081 10.7577C38.6297 10.758 38.7463 10.8064 38.8322 10.8923C38.9182 10.9783 38.9666 11.0949 38.9668 11.2165C38.9667 11.3381 38.9183 11.4547 38.8323 11.5406C38.7463 11.6266 38.6297 11.675 38.5081 11.6751ZM33.519 6.96085C34.7628 6.96085 35.7745 5.94903 35.7745 4.70523C35.7745 3.46144 34.7628 2.44971 33.519 2.44971C32.2752 2.44971 31.2634 3.46144 31.2634 4.70514C31.2634 5.94885 32.2752 6.96085 33.519 6.96085ZM33.519 4.24622C33.6406 4.24641 33.7573 4.29486 33.8433 4.38093C33.9292 4.467 33.9776 4.58366 33.9776 4.70532C33.9775 4.82692 33.9291 4.94348 33.8431 5.02946C33.7571 5.11543 33.6406 5.16381 33.519 5.16398C33.3974 5.16383 33.2808 5.11546 33.1948 5.02946C33.1088 4.94346 33.0604 4.82686 33.0602 4.70523C33.0602 4.45223 33.266 4.24622 33.519 4.24622ZM8.29464 8.50149C8.43857 8.84685 8.79264 9.07496 9.16783 9.05529C9.53879 9.03597 9.86376 8.78504 9.97849 8.43267C10.0944 8.07716 9.96798 7.67223 9.67077 7.44511C9.36782 7.21421 8.9425 7.19984 8.62526 7.4107C8.27325 7.64483 8.1322 8.11157 8.29464 8.50149Z" fill="black"/>
</svg>
