<svg width="24" height="24" viewBox="0 0 24 24" fill="none" xmlns="http://www.w3.org/2000/svg">
<path d="M22.8 0H20.4C20.0817 0 19.7765 0.126428 19.5515 0.351472C19.3264 0.576515 19.2 0.88174 19.2 1.2V2H4.8V1.2C4.8 0.88174 4.67357 0.576515 4.44853 0.351472C4.22348 0.126428 3.91826 0 3.6 0L1.2 0C0.88174 0 0.576515 0.126428 0.351472 0.351472C0.126428 0.576515 0 0.88174 0 1.2L0 3.6C0 3.91826 0.126428 4.22348 0.351472 4.44853C0.576515 4.67357 0.88174 4.8 1.2 4.8H2V19.2H1.2C0.88174 19.2 0.576515 19.3264 0.351472 19.5515C0.126428 19.7765 0 20.0817 0 20.4L0 22.8C0 23.1183 0.126428 23.4235 0.351472 23.6485C0.576515 23.8736 0.88174 24 1.2 24H3.6C3.91826 24 4.22348 23.8736 4.44853 23.6485C4.67357 23.4235 4.8 23.1183 4.8 22.8V22H19.2V22.8C19.2 23.1183 19.3264 23.4235 19.5515 23.6485C19.7765 23.8736 20.0817 24 20.4 24H22.8C23.1183 24 23.4235 23.8736 23.6485 23.6485C23.8736 23.4235 24 23.1183 24 22.8V20.4C24 20.0817 23.8736 19.7765 23.6485 19.5515C23.4235 19.3264 23.1183 19.2 22.8 19.2H22V4.8H22.8C23.1183 4.8 23.4235 4.67357 23.6485 4.44853C23.8736 4.22348 24 3.91826 24 3.6V1.2C24 0.88174 23.8736 0.576515 23.6485 0.351472C23.4235 0.126428 23.1183 0 22.8 0ZM0.8 3.6V1.2C0.8 1.09391 0.842143 0.992172 0.917157 0.917157C0.992172 0.842143 1.09391 0.8 1.2 0.8H3.6C3.70609 0.8 3.80783 0.842143 3.88284 0.917157C3.95786 0.992172 4 1.09391 4 1.2V3.6C4 3.70609 3.95786 3.80783 3.88284 3.88284C3.80783 3.95786 3.70609 4 3.6 4H1.2C1.09391 4 0.992172 3.95786 0.917157 3.88284C0.842143 3.80783 0.8 3.70609 0.8 3.6ZM4 22.8C4 22.9061 3.95786 23.0078 3.88284 23.0828C3.80783 23.1579 3.70609 23.2 3.6 23.2H1.2C1.09391 23.2 0.992172 23.1579 0.917157 23.0828C0.842143 23.0078 0.8 22.9061 0.8 22.8V20.4C0.8 20.2939 0.842143 20.1922 0.917157 20.1172C0.992172 20.0421 1.09391 20 1.2 20H3.6C3.70609 20 3.80783 20.0421 3.88284 20.1172C3.95786 20.1922 4 20.2939 4 20.4V22.8ZM23.2 20.4V22.8C23.2 22.9061 23.1579 23.0078 23.0828 23.0828C23.0078 23.1579 22.9061 23.2 22.8 23.2H20.4C20.2939 23.2 20.1922 23.1579 20.1172 23.0828C20.0421 23.0078 20 22.9061 20 22.8V20.4C20 20.2939 20.0421 20.1922 20.1172 20.1172C20.1922 20.0421 20.2939 20 20.4 20H22.8C22.9061 20 23.0078 20.0421 23.0828 20.1172C23.1579 20.1922 23.2 20.2939 23.2 20.4ZM20.4 19.2C20.0817 19.2 19.7765 19.3264 19.5515 19.5515C19.3264 19.7765 19.2 20.0817 19.2 20.4V21.2H10V11.2H10.4C10.6122 11.2 10.8157 11.1157 10.9657 10.9657C11.1157 10.8157 11.2 10.6122 11.2 10.4V10H21.2V19.2H20.4ZM8.8 10.4V8.8H10.4V10.4H8.8ZM21.2 6H20.8C20.6939 6 20.5922 6.04214 20.5172 6.11716C20.4421 6.19217 20.4 6.29391 20.4 6.4C20.4 6.50609 20.4421 6.60783 20.5172 6.68284C20.5922 6.75786 20.6939 6.8 20.8 6.8H21.2V9.2H11.2V8.8C11.2 8.58783 11.1157 8.38434 10.9657 8.23431C10.8157 8.08429 10.6122 8 10.4 8H8.8C8.58783 8 8.38434 8.08429 8.23431 8.23431C8.08429 8.38434 8 8.58783 8 8.8V10.4C8 10.6122 8.08429 10.8157 8.23431 10.9657C8.38434 11.1157 8.58783 11.2 8.8 11.2H9.2V21.2H6.8V20.8C6.8 20.6939 6.75786 20.5922 6.68284 20.5172C6.60783 20.4421 6.50609 20.4 6.4 20.4C6.29391 20.4 6.19217 20.4421 6.11716 20.5172C6.04214 20.5922 6 20.6939 6 20.8V21.2H4.8V20.4C4.8 20.0817 4.67357 19.7765 4.44853 19.5515C4.22348 19.3264 3.91826 19.2 3.6 19.2H2.8V4.8H3.6C3.91826 4.8 4.22348 4.67357 4.44853 4.44853C4.67357 4.22348 4.8 3.91826 4.8 3.6V2.8H19.2V3.6C19.2 3.91826 19.3264 4.22348 19.5515 4.44853C19.7765 4.67357 20.0817 4.8 20.4 4.8H21.2V6ZM23.2 3.6C23.2 3.70609 23.1579 3.80783 23.0828 3.88284C23.0078 3.95786 22.9061 4 22.8 4H20.4C20.2939 4 20.1922 3.95786 20.1172 3.88284C20.0421 3.80783 20 3.70609 20 3.6V1.2C20 1.09391 20.0421 0.992172 20.1172 0.917157C20.1922 0.842143 20.2939 0.8 20.4 0.8H22.8C22.9061 0.8 23.0078 0.842143 23.0828 0.917157C23.1579 0.992172 23.2 1.09391 23.2 1.2V3.6Z" fill="#107BC0"/>
<path d="M18.4 15.2C18.2939 15.2 18.1922 15.2421 18.1172 15.3172C18.0421 15.3922 18 15.4939 18 15.6V17.4344L13.3656 12.8H15.2C15.3061 12.8 15.4078 12.7579 15.4828 12.6828C15.5579 12.6078 15.6 12.5061 15.6 12.4C15.6 12.2939 15.5579 12.1922 15.4828 12.1172C15.4078 12.0421 15.3061 12 15.2 12H12.4C12.2939 12 12.1922 12.0421 12.1172 12.1172C12.0421 12.1922 12 12.2939 12 12.4V15.2C12 15.3061 12.0421 15.4078 12.1172 15.4828C12.1922 15.5579 12.2939 15.6 12.4 15.6C12.5061 15.6 12.6078 15.5579 12.6828 15.4828C12.7579 15.4078 12.8 15.3061 12.8 15.2V13.3656L17.4344 18H15.6C15.4939 18 15.3922 18.0421 15.3172 18.1172C15.2421 18.1922 15.2 18.2939 15.2 18.4C15.2 18.5061 15.2421 18.6078 15.3172 18.6828C15.3922 18.7579 15.4939 18.8 15.6 18.8H18.4C18.5061 18.8 18.6078 18.7579 18.6828 18.6828C18.7579 18.6078 18.8 18.5061 18.8 18.4V15.6C18.8 15.4939 18.7579 15.3922 18.6828 15.3172C18.6078 15.2421 18.5061 15.2 18.4 15.2ZM6.4 18C6.29391 18 6.19217 18.0421 6.11716 18.1172C6.04214 18.1922 6 18.2939 6 18.4V19.2C6 19.3061 6.04214 19.4078 6.11716 19.4828C6.19217 19.5579 6.29391 19.6 6.4 19.6C6.50609 19.6 6.60783 19.5579 6.68284 19.4828C6.75786 19.4078 6.8 19.3061 6.8 19.2V18.4C6.8 18.2939 6.75786 18.1922 6.68284 18.1172C6.60783 18.0421 6.50609 18 6.4 18ZM6.4 15.6C6.29391 15.6 6.19217 15.6421 6.11716 15.7172C6.04214 15.7922 6 15.8939 6 16V16.8C6 16.9061 6.04214 17.0078 6.11716 17.0828C6.19217 17.1579 6.29391 17.2 6.4 17.2C6.50609 17.2 6.60783 17.1579 6.68284 17.0828C6.75786 17.0078 6.8 16.9061 6.8 16.8V16C6.8 15.8939 6.75786 15.7922 6.68284 15.7172C6.60783 15.6421 6.50609 15.6 6.4 15.6ZM6.4 13.2C6.29391 13.2 6.19217 13.2421 6.11716 13.3172C6.04214 13.3922 6 13.4939 6 13.6V14.4C6 14.5061 6.04214 14.6078 6.11716 14.6828C6.19217 14.7579 6.29391 14.8 6.4 14.8C6.50609 14.8 6.60783 14.7579 6.68284 14.6828C6.75786 14.6078 6.8 14.5061 6.8 14.4V13.6C6.8 13.4939 6.75786 13.3922 6.68284 13.3172C6.60783 13.2421 6.50609 13.2 6.4 13.2ZM6.4 10.8C6.29391 10.8 6.19217 10.8421 6.11716 10.9172C6.04214 10.9922 6 11.0939 6 11.2V12C6 12.1061 6.04214 12.2078 6.11716 12.2828C6.19217 12.3579 6.29391 12.4 6.4 12.4C6.50609 12.4 6.60783 12.3579 6.68284 12.2828C6.75786 12.2078 6.8 12.1061 6.8 12V11.2C6.8 11.0939 6.75786 10.9922 6.68284 10.9172C6.60783 10.8421 6.50609 10.8 6.4 10.8ZM6.4 8.4C6.29391 8.4 6.19217 8.44214 6.11716 8.51716C6.04214 8.59217 6 8.69391 6 8.8V9.6C6 9.70609 6.04214 9.80783 6.11716 9.88284C6.19217 9.95786 6.29391 10 6.4 10C6.50609 10 6.60783 9.95786 6.68284 9.88284C6.75786 9.80783 6.8 9.70609 6.8 9.6V8.8C6.8 8.69391 6.75786 8.59217 6.68284 8.51716C6.60783 8.44214 6.50609 8.4 6.4 8.4ZM9.6 6H8.8C8.69391 6 8.59217 6.04214 8.51716 6.11716C8.44214 6.19217 8.4 6.29391 8.4 6.4C8.4 6.50609 8.44214 6.60783 8.51716 6.68284C8.59217 6.75786 8.69391 6.8 8.8 6.8H9.6C9.70609 6.8 9.80783 6.75786 9.88284 6.68284C9.95786 6.60783 10 6.50609 10 6.4C10 6.29391 9.95786 6.19217 9.88284 6.11716C9.80783 6.04214 9.70609 6 9.6 6ZM12 6H11.2C11.0939 6 10.9922 6.04214 10.9172 6.11716C10.8421 6.19217 10.8 6.29391 10.8 6.4C10.8 6.50609 10.8421 6.60783 10.9172 6.68284C10.9922 6.75786 11.0939 6.8 11.2 6.8H12C12.1061 6.8 12.2078 6.75786 12.2828 6.68284C12.3579 6.60783 12.4 6.50609 12.4 6.4C12.4 6.29391 12.3579 6.19217 12.2828 6.11716C12.2078 6.04214 12.1061 6 12 6ZM14.4 6H13.6C13.4939 6 13.3922 6.04214 13.3172 6.11716C13.2421 6.19217 13.2 6.29391 13.2 6.4C13.2 6.50609 13.2421 6.60783 13.3172 6.68284C13.3922 6.75786 13.4939 6.8 13.6 6.8H14.4C14.5061 6.8 14.6078 6.75786 14.6828 6.68284C14.7579 6.60783 14.8 6.50609 14.8 6.4C14.8 6.29391 14.7579 6.19217 14.6828 6.11716C14.6078 6.04214 14.5061 6 14.4 6ZM16.8 6H16C15.8939 6 15.7922 6.04214 15.7172 6.11716C15.6421 6.19217 15.6 6.29391 15.6 6.4C15.6 6.50609 15.6421 6.60783 15.7172 6.68284C15.7922 6.75786 15.8939 6.8 16 6.8H16.8C16.9061 6.8 17.0078 6.75786 17.0828 6.68284C17.1579 6.60783 17.2 6.50609 17.2 6.4C17.2 6.29391 17.1579 6.19217 17.0828 6.11716C17.0078 6.04214 16.9061 6 16.8 6ZM19.2 6H18.4C18.2939 6 18.1922 6.04214 18.1172 6.11716C18.0421 6.19217 18 6.29391 18 6.4C18 6.50609 18.0421 6.60783 18.1172 6.68284C18.1922 6.75786 18.2939 6.8 18.4 6.8H19.2C19.3061 6.8 19.4078 6.75786 19.4828 6.68284C19.5579 6.60783 19.6 6.50609 19.6 6.4C19.6 6.29391 19.5579 6.19217 19.4828 6.11716C19.4078 6.04214 19.3061 6 19.2 6ZM7.2 6H6.4C6.29391 6 6.19217 6.04214 6.11716 6.11716C6.04214 6.19217 6 6.29391 6 6.4V7.2C6 7.30609 6.04214 7.40783 6.11716 7.48284C6.19217 7.55786 6.29391 7.6 6.4 7.6C6.50609 7.6 6.60783 7.55786 6.68284 7.48284C6.75786 7.40783 6.8 7.30609 6.8 7.2V6.8H7.2C7.30609 6.8 7.40783 6.75786 7.48284 6.68284C7.55786 6.60783 7.6 6.50609 7.6 6.4C7.6 6.29391 7.55786 6.19217 7.48284 6.11716C7.40783 6.04214 7.30609 6 7.2 6Z" fill="#107BC0"/>
</svg>
