<svg width="54" height="48" viewBox="0 0 54 48" fill="none" xmlns="http://www.w3.org/2000/svg">
<path d="M21.0591 47.6558C32.3079 47.6558 41.4268 38.5369 41.4268 27.2881C41.4268 16.0393 32.3079 6.92041 21.0591 6.92041C9.81033 6.92041 0.691406 16.0393 0.691406 27.2881C0.691406 38.5369 9.81033 47.6558 21.0591 47.6558Z" fill="#D5EEFF"/>
<path d="M21.2899 43.031L21.0315 42.5908C17.0854 35.8673 6.59899 21.5991 6.49307 21.4558L6.3418 21.2503L9.91445 17.7195L21.2235 25.6163C28.344 16.3764 34.987 10.0301 39.3201 6.32402C44.0602 2.26998 47.1457 0.403635 47.1769 0.38575L47.247 0.34375H53.3073L52.7284 0.859289C37.8404 14.12 21.7034 42.3043 21.5427 42.5874L21.2899 43.031Z" fill="#107BC0"/>
</svg>
