<svg width="35" height="35" viewBox="0 0 35 35" fill="none" xmlns="http://www.w3.org/2000/svg">
<rect x="0.5" y="0.5" width="34" height="34" rx="17" stroke="white"/>
<path d="M18.5833 17.5003L16.6875 18.5837V16.417L18.5833 17.5003Z" fill="white" stroke="white" stroke-linecap="round" stroke-linejoin="round"/>
<path d="M12.0835 17.8836V17.1166C12.0835 15.5485 12.0835 14.7642 12.5737 14.2599C13.0645 13.755 13.8369 13.7334 15.3812 13.6895C16.1124 13.6689 16.8599 13.6543 17.5002 13.6543C18.1404 13.6543 18.8874 13.6689 19.6192 13.6895C21.1635 13.7334 21.9359 13.755 22.4261 14.2599C22.9163 14.7647 22.9168 15.549 22.9168 17.1166V17.8831C22.9168 19.4518 22.9168 20.2355 22.4266 20.7404C21.9359 21.2447 21.164 21.2669 19.6192 21.3102C18.8879 21.3313 18.1404 21.346 17.5002 21.346C16.8599 21.346 16.113 21.3313 15.3812 21.3102C13.8369 21.2669 13.0645 21.2452 12.5737 20.7404C12.083 20.2355 12.0835 19.4512 12.0835 17.8836Z" stroke="white"/>
</svg>
