<svg width="35" height="35" viewBox="0 0 35 35" fill="none" xmlns="http://www.w3.org/2000/svg">
<rect x="0.5" y="0.5" width="34" height="34" rx="17" stroke="#107BC0"/>
<path d="M18 14.8604C16.8194 14.8604 15.8604 15.8194 15.8604 17C15.8604 18.1807 16.8194 19.142 18 19.142C19.1807 19.142 20.142 18.1807 20.142 17C20.142 15.8194 19.1807 14.8604 18 14.8604Z" fill="#107BC0"/>
<path d="M21.2297 11.1667H14.771C13.336 11.1667 12.167 12.3357 12.167 13.7707V20.2294C12.167 21.6667 13.336 22.8334 14.771 22.8334H21.2297C22.667 22.8334 23.8337 21.6667 23.8337 20.2294V13.7707C23.8337 12.3357 22.667 11.1667 21.2297 11.1667ZM18.0003 20.7801C15.9167 20.7801 14.2203 19.0837 14.2203 17.0001C14.2203 14.9164 15.9167 13.2224 18.0003 13.2224C20.084 13.2224 21.7803 14.9164 21.7803 17.0001C21.7803 19.0837 20.084 20.7801 18.0003 20.7801ZM21.8597 13.9084C21.4187 13.9084 21.0593 13.5514 21.0593 13.1104C21.0593 12.6694 21.4187 12.3101 21.8597 12.3101C22.3007 12.3101 22.66 12.6694 22.66 13.1104C22.66 13.5514 22.3007 13.9084 21.8597 13.9084Z" fill="#107BC0"/>
</svg>
