<svg width="35" height="35" viewBox="0 0 35 35" fill="none" xmlns="http://www.w3.org/2000/svg">
<rect x="0.5" y="0.5" width="34" height="34" rx="17" stroke="#107BC0"/>
<path d="M22.3139 11.8063H12.6809C12.4469 11.8063 12.2476 11.8865 12.0829 12.0468C11.9183 12.2072 11.8359 12.4 11.8359 12.6253V22.3753C11.8359 22.6007 11.9183 22.7935 12.0829 22.9538C12.2476 23.1142 12.4469 23.1943 12.6809 23.1943H22.3139C22.5393 23.1943 22.7343 23.1142 22.8989 22.9538C23.0636 22.7935 23.1459 22.6007 23.1459 22.3753V12.6253C23.1459 12.4 23.0636 12.2072 22.8989 12.0468C22.7343 11.8865 22.5393 11.8063 22.3139 11.8063ZM15.2679 21.3353H13.5649V16.2003H15.2679V21.3353ZM14.4099 15.4983H14.3969C14.1196 15.4983 13.8943 15.4138 13.7209 15.2448C13.5476 15.0758 13.4609 14.8635 13.4609 14.6078C13.4609 14.3522 13.5498 14.1398 13.7274 13.9708C13.9051 13.8018 14.1369 13.7173 14.4229 13.7173C14.7089 13.7173 14.9386 13.8018 15.1119 13.9708C15.2853 14.1398 15.3719 14.3522 15.3719 14.6078C15.3719 14.8635 15.2853 15.0758 15.1119 15.2448C14.9386 15.4138 14.7046 15.4983 14.4099 15.4983ZM21.4169 21.3353H19.7139V18.5793C19.7139 18.2153 19.6489 17.938 19.5189 17.7473C19.3716 17.5307 19.1506 17.4223 18.8559 17.4223C18.6393 17.4223 18.4486 17.4873 18.2839 17.6173C18.1539 17.73 18.0499 17.873 17.9719 18.0463C17.9373 18.1503 17.9199 18.289 17.9199 18.4623V21.3353H16.2169V18.9433C16.2256 17.314 16.2256 16.3997 16.2169 16.2003H17.9199V16.9283C18.2753 16.365 18.7866 16.0833 19.4539 16.0833C20.0433 16.0833 20.5113 16.2697 20.8579 16.6423C21.2306 17.0497 21.4169 17.6303 21.4169 18.3843V21.3353Z" fill="#107BC0"/>
</svg>
