<svg width="35" height="35" viewBox="0 0 35 35" fill="none" xmlns="http://www.w3.org/2000/svg">
<rect x="0.5" y="0.5" width="34" height="34" rx="17" stroke="#107BC0"/>
<g clip-path="url(#clip0_4232_333)">
<path d="M23.3906 20.2015C23.3906 21.4055 22.4055 22.3906 21.2015 22.3906H14.7985C13.5945 22.3906 12.6094 21.4055 12.6094 20.2015V13.7985C12.6094 12.5945 13.5945 11.6094 14.7985 11.6094H21.2015C22.4055 11.6094 23.3906 12.5945 23.3906 13.7985V20.2015Z" fill="white"/>
<path d="M18.8068 16.4625L21.4002 13.2302H20.649L18.4314 15.9944L16.2135 13.2302H13.7373L17.1932 17.5376L14.5996 20.7701H15.3507L17.5686 18.0056L19.7868 20.7701H22.2629L18.8068 16.4625ZM14.9584 13.8161H15.9322L21.0416 20.1841H20.0678L14.9584 13.8161Z" fill="#107BC0"/>
</g>
<defs>
<clipPath id="clip0_4232_333">
<rect width="12" height="12" fill="white" transform="translate(12 11)"/>
</clipPath>
</defs>
</svg>
