<svg width="35" height="35" viewBox="0 0 35 35" fill="none" xmlns="http://www.w3.org/2000/svg">
<rect x="0.5" y="0.5" width="34" height="34" rx="17" stroke="#107BC0"/>
<rect width="13" height="13" transform="translate(11 11)" fill="white"/>
<path d="M18.5833 17.5003L16.6875 18.5837V16.417L18.5833 17.5003Z" fill="white" stroke="#107BC0" stroke-linecap="round" stroke-linejoin="round"/>
<path d="M12.083 17.8836V17.1166C12.083 15.5485 12.083 14.7642 12.5732 14.2599C13.064 13.755 13.8364 13.7334 15.3807 13.6895C16.1119 13.6689 16.8594 13.6543 17.4997 13.6543C18.1399 13.6543 18.8869 13.6689 19.6187 13.6895C21.163 13.7334 21.9354 13.755 22.4256 14.2599C22.9158 14.7647 22.9163 15.549 22.9163 17.1166V17.8831C22.9163 19.4518 22.9163 20.2355 22.4261 20.7404C21.9354 21.2447 21.1635 21.2669 19.6187 21.3102C18.8874 21.3313 18.1399 21.346 17.4997 21.346C16.8594 21.346 16.1125 21.3313 15.3807 21.3102C13.8364 21.2669 13.064 21.2452 12.5732 20.7404C12.0825 20.2355 12.083 19.4512 12.083 17.8836Z" stroke="#107BC0"/>
</svg>
